<?xml version="1.0" encoding="UTF-8" standalone="no"?>
<!DOCTYPE svg PUBLIC "-//W3C//DTD SVG 1.1//EN" "http://www.w3.org/Graphics/SVG/1.1/DTD/svg11.dtd">
<svg width="100%" height="100%" viewBox="0 0 612 383" version="1.1" xmlns="http://www.w3.org/2000/svg" xmlns:xlink="http://www.w3.org/1999/xlink" xml:space="preserve" xmlns:serif="http://www.serif.com/" style="fill-rule:evenodd;clip-rule:evenodd;stroke-linejoin:round;stroke-miterlimit:2;">
    <g transform="matrix(2.2467,0,0,2.2467,347.232,342.75)">
        <g transform="matrix(0.0701726,0,0,0.0558786,-158.83,-177.433)">
            <path d="M461.376,1082.34C461.376,1082.34 680.954,523.543 1319.29,671.65C1957.63,819.757 1907.11,1308.27 2619.76,1422.46C3332.4,1536.65 3737.53,1737.83 3802.89,2221.06C3868.25,2704.28 3713.12,3219.78 3386.26,3292.92C3059.4,3366.07 2679.42,3356.4 2293.41,3315.23C1907.4,3274.06 1513.38,3539.21 1064.95,3419.96C616.511,3300.71 197.613,2897.3 198.722,2539.34C199.83,2181.39 175.52,1478.45 461.376,1082.34Z" style="fill:rgb(230,242,254);fill-rule:nonzero;"/>
        </g>
        <g transform="matrix(0.0558786,0,0,0.0558786,-129.158,-177.433)">
            <path d="M3321.43,2976.14L3287.86,2943.3C3287.86,2943.3 3231.9,2775.51 3252.29,2706.87C3252.88,2704.89 3253.54,2702.99 3254.25,2701.18C3255.2,2698.8 3256.26,2696.57 3257.44,2694.51C3290.7,2636.72 3335.42,2676.34 3347.92,2741.92C3347.82,2740.17 3343.31,2658.83 3336.26,2589.94C3335.88,2586.18 3335.48,2582.46 3335.09,2578.8C3334.33,2571.9 3333.56,2565.19 3332.76,2558.75C3326.76,2510.53 3334.17,2480.75 3348.85,2470.08C3350.16,2469.13 3351.51,2468.34 3352.93,2467.7C3359.79,2464.57 3367.89,2464.99 3376.75,2469.01C3408.04,2483.2 3426.62,2536.96 3426.62,2536.96C3426.62,2536.96 3412.9,2449.46 3421.07,2388.51C3421.31,2386.7 3421.57,2384.91 3421.85,2383.15C3424.18,2368.59 3427.89,2355.84 3433.53,2346.59C3446.32,2325.54 3461.21,2313.36 3475.46,2309.67C3477.04,2309.26 3478.61,2308.96 3480.17,2308.75C3496.65,2306.63 3511.84,2316.12 3521.3,2336.63C3539.73,2376.56 3493.3,2559.75 3493.3,2559.75C3493.3,2559.75 3546.89,2501.2 3576.82,2515.68C3578.23,2516.36 3579.58,2517.19 3580.87,2518.21C3581.06,2518.35 3581.24,2518.5 3581.42,2518.65C3606.45,2539.54 3546.63,2631.13 3484.51,2696.89C3494.6,2690.71 3505.57,2689.14 3513.55,2701.83C3514.33,2703.08 3515.09,2704.47 3515.82,2706.02C3516.26,2706.94 3516.68,2707.92 3517.09,2708.96C3534.88,2753.74 3321.43,2976.14 3321.43,2976.14Z" style="fill:rgb(146,190,239);fill-rule:nonzero;"/>
        </g>
        <g transform="matrix(0.0558786,0,0,0.0558786,-129.158,-177.433)">
            <path d="M3306.99,2961.16L3304.93,2960L3302.89,2958.85C3302.91,2958.82 3303.02,2958.63 3303.19,2958.3C3305.86,2953.5 3325.42,2917.84 3350.38,2861.22L3252.29,2706.87C3252.88,2704.89 3253.54,2702.99 3254.25,2701.18L3352.66,2856.02C3367.14,2822.87 3383.28,2782.94 3398.92,2738.11C3402.03,2729.19 3405.17,2719.92 3408.31,2710.36L3336.26,2589.94C3335.88,2586.18 3335.48,2582.46 3335.09,2578.8L3410.25,2704.42C3417.13,2683.13 3423.99,2660.38 3430.53,2636.41L3348.85,2470.08C3350.16,2469.13 3351.51,2468.34 3352.93,2467.7L3432.4,2629.53C3448.84,2568.14 3463.06,2499.13 3470.37,2426.86L3421.07,2388.51C3421.31,2386.7 3421.57,2384.91 3421.85,2383.15L3470.92,2421.32C3474.44,2384.73 3476.15,2347.32 3475.46,2309.67C3477.04,2309.26 3478.61,2308.96 3480.17,2308.75C3481.46,2373.51 3475.8,2442.05 3463.28,2513.22C3452.61,2573.81 3436.96,2636.43 3416.67,2699.85L3576.82,2515.68C3578.23,2516.36 3579.58,2517.19 3580.87,2518.21L3412.98,2711.27C3409.86,2720.75 3406.65,2730.25 3403.33,2739.76C3395.54,2762.08 3387.63,2783.18 3379.86,2802.85L3513.55,2701.83C3514.33,2703.08 3515.09,2704.47 3515.82,2706.02L3376.5,2811.29C3339.94,2902.37 3307.4,2960.45 3306.99,2961.16Z" style="fill:white;fill-rule:nonzero;"/>
        </g>
        <g transform="matrix(0.0558786,0,0,0.0558786,-129.158,-177.433)">
            <path d="M3336.33,2933.64L3289.97,2926.06C3289.97,2926.06 3147.76,2820.89 3125.01,2753C3124.35,2751.04 3123.79,2749.11 3123.34,2747.21C3122.75,2744.72 3122.34,2742.29 3122.12,2739.92C3116.13,2673.52 3175.5,2680.25 3223.41,2726.74C3222.33,2725.36 3171.89,2661.38 3126.53,2609.05C3124.06,2606.2 3121.6,2603.38 3119.18,2600.61C3114.59,2595.39 3110.1,2590.35 3105.75,2585.54C3073.12,2549.52 3062.08,2520.9 3067.97,2503.72C3068.49,2502.2 3069.14,2500.77 3069.93,2499.43C3073.74,2492.93 3080.62,2488.61 3090.18,2486.81C3123.94,2480.44 3170.04,2513.76 3170.04,2513.76C3170.04,2513.76 3108.53,2450.04 3080.19,2395.46C3079.35,2393.85 3078.54,2392.23 3077.75,2390.63C3071.29,2377.38 3067.01,2364.81 3066.3,2354C3064.67,2329.42 3069.86,2310.89 3079.4,2299.69C3080.46,2298.45 3081.57,2297.29 3082.73,2296.23C3095,2285.02 3112.88,2284.06 3132.41,2295.41C3170.44,2317.5 3237.71,2494.1 3237.71,2494.1C3237.71,2494.1 3247.92,2415.39 3280.74,2410.04C3282.28,2409.78 3283.86,2409.69 3285.5,2409.79C3285.74,2409.79 3285.98,2409.81 3286.21,2409.83C3318.7,2412.54 3322.38,2521.88 3309.32,2611.39C3314.03,2600.53 3322.1,2592.94 3335.92,2598.75C3337.29,2599.32 3338.71,2600.02 3340.19,2600.87C3341.08,2601.37 3341.99,2601.93 3342.92,2602.54C3383.22,2628.97 3336.33,2933.64 3336.33,2933.64Z" style="fill:rgb(167,205,254);fill-rule:nonzero;"/>
        </g>
        <g transform="matrix(0.0558786,0,0,0.0558786,-129.158,-177.433)">
            <path d="M3315.9,2929.68L3313.54,2929.91L3311.22,2930.14C3311.21,2930.11 3311.19,2929.89 3311.15,2929.52C3310.57,2924.07 3306.08,2883.64 3293.98,2822.96L3125.01,2753C3124.35,2751.04 3123.79,2749.11 3123.34,2747.21L3292.86,2817.39C3285.66,2781.94 3275.92,2739.99 3262.97,2694.31C3260.38,2685.21 3257.62,2675.83 3254.7,2666.2L3126.53,2609.05C3124.06,2606.2 3121.6,2603.38 3119.18,2600.61L3252.87,2660.22C3246.28,2638.85 3238.81,2616.29 3230.39,2592.91L3067.97,2503.72C3068.49,2502.2 3069.14,2500.77 3069.93,2499.43L3227.96,2586.21C3206.14,2526.51 3178.13,2461.86 3142.58,2398.52L3080.19,2395.46C3079.35,2393.85 3078.54,2392.23 3077.75,2390.63L3139.84,2393.67C3121.69,2361.7 3101.6,2330.11 3079.4,2299.69C3080.46,2298.45 3081.57,2297.29 3082.73,2296.23C3121,2348.49 3155.75,2407.83 3186.4,2473.27C3212.49,2528.99 3235.66,2589.23 3255.5,2652.8L3280.74,2410.04C3282.28,2409.78 3283.86,2409.69 3285.5,2409.79L3259.04,2664.26C3261.94,2673.81 3264.76,2683.43 3267.52,2693.13C3273.97,2715.87 3279.62,2737.68 3284.57,2758.24L3335.92,2598.75C3337.29,2599.32 3338.71,2600.02 3340.19,2600.87L3286.67,2767.09C3309.08,2862.63 3315.82,2928.87 3315.9,2929.68Z" style="fill:white;fill-rule:nonzero;"/>
        </g>
        <g transform="matrix(0.0558786,0,0,0.0558786,-129.158,-177.433)">
            <path d="M2898.89,2167.21C2957.86,2147.33 3014.04,2116.13 3065.87,2074.48C3107.26,2041.21 3145.99,2001.24 3180.98,1955.66C3240.52,1878.11 3268.99,1810.21 3269.27,1809.53L3261.37,1806.9C3261.09,1807.57 3232.83,1874.91 3173.71,1951.89C3119.26,2022.78 3026.73,2116.6 2895.14,2160.96L2898.89,2167.21Z" style="fill:rgb(113,165,211);fill-rule:nonzero;"/>
        </g>
        <g transform="matrix(0.0558786,0,0,0.0558786,-129.158,-177.433)">
            <path d="M3225.37,1875.43C3211.1,1848.05 3222.94,1745.44 3259.91,1718.72C3296.88,1691.99 3319.24,1766.62 3292.24,1819.47C3265.25,1872.33 3225.37,1875.43 3225.37,1875.43Z" style="fill:rgb(167,205,254);fill-rule:nonzero;"/>
        </g>
        <g transform="matrix(0.0558786,0,0,0.0558786,-129.158,-177.433)">
            <path d="M3142.32,1816.29C3174.86,1851.72 3177.57,1951.23 3177.57,1951.23C3058.29,1885.06 3109.77,1780.85 3142.32,1816.29Z" style="fill:rgb(167,205,254);fill-rule:nonzero;"/>
        </g>
        <g transform="matrix(0.0558786,0,0,0.0558786,-129.158,-177.433)">
            <path d="M3177.78,1950.15C3177.78,1950.15 3272.88,1920.69 3316.9,1940.11C3360.92,1959.52 3278.82,2041.79 3177.78,1950.15Z" style="fill:rgb(167,205,254);fill-rule:nonzero;"/>
        </g>
        <g transform="matrix(0.0558786,0,0,0.0558786,-129.158,-177.433)">
            <path d="M3110.71,2036.02C3110.72,2036.35 3110.72,2036.54 3110.72,2036.54C2991.44,1970.37 3042.92,1866.16 3075.47,1901.59C3104.29,1932.97 3109.71,2014.59 3110.57,2032.86C3125.97,2028.38 3207.38,2006.05 3247.14,2023.58C3290.77,2042.82 3210.5,2123.81 3110.71,2036.02Z" style="fill:rgb(167,205,254);fill-rule:nonzero;"/>
        </g>
        <g transform="matrix(0.0558786,0,0,0.0558786,-129.158,-177.433)">
            <path d="M2993,1967.73C3022.53,1999.88 3027.49,2084.79 3028.16,2100.24C3043.68,2095.72 3124.96,2073.46 3164.67,2090.98C3208.63,2110.36 3126.82,2192.43 3025.98,2101.39C2909.64,2035.16 2960.66,1932.52 2993,1967.73Z" style="fill:rgb(167,205,254);fill-rule:nonzero;"/>
        </g>
        <g transform="matrix(0.0558786,0,0,0.0558786,-129.158,-177.433)">
            <path d="M1967.01,3146.21C1897.46,3131.18 1829.63,3102.94 1765.41,3062.27C1714.12,3029.78 1664.99,2989.33 1619.4,2942.04C1541.8,2861.57 1500.74,2788.08 1500.34,2787.34L1508.98,2783.34C1509.39,2784.07 1550.12,2856.95 1627.17,2936.82C1698.12,3010.38 1815.27,3105.1 1970.47,3138.62L1967.01,3146.21Z" style="fill:rgb(113,165,211);fill-rule:nonzero;"/>
        </g>
        <g transform="matrix(0.0558786,0,0,0.0558786,-129.158,-177.433)">
            <path d="M1558.67,2856.58C1571.36,2823.65 1544.75,2708.59 1499.32,2682.97C1453.89,2657.34 1438.07,2745 1475.52,2801.59C1512.96,2858.18 1558.67,2856.58 1558.67,2856.58Z" style="fill:rgb(167,205,254);fill-rule:nonzero;"/>
        </g>
        <g transform="matrix(0.0558786,0,0,0.0558786,-129.158,-177.433)">
            <path d="M1645.44,2778.74C1613.01,2823.17 1622.7,2936.57 1622.7,2936.57C1749.72,2846.09 1677.87,2734.3 1645.44,2778.74Z" style="fill:rgb(167,205,254);fill-rule:nonzero;"/>
        </g>
        <g transform="matrix(0.0558786,0,0,0.0558786,-129.158,-177.433)">
            <path d="M1622.31,2935.37C1622.31,2935.37 1510.5,2914.1 1462.98,2941.8C1415.45,2969.5 1519.28,3052.44 1622.31,2935.37Z" style="fill:rgb(167,205,254);fill-rule:nonzero;"/>
        </g>
        <g transform="matrix(0.0558786,0,0,0.0558786,-129.158,-177.433)">
            <path d="M1709.54,3024.32C1709.57,3024.7 1709.59,3024.92 1709.59,3024.92C1836.61,2934.44 1764.76,2822.65 1732.33,2867.08C1703.61,2906.43 1707.92,2999.85 1709.28,3020.72C1691.22,3017.6 1595.86,3002.67 1552.94,3027.69C1505.84,3055.15 1607.41,3136.86 1709.54,3024.32Z" style="fill:rgb(167,205,254);fill-rule:nonzero;"/>
        </g>
        <g transform="matrix(0.0558786,0,0,0.0558786,-129.158,-177.433)">
            <path d="M1834.51,2931.64C1805.08,2971.96 1810.33,3069.06 1811.56,3086.7C1793.34,3083.55 1698.15,3068.69 1655.27,3093.68C1607.82,3121.34 1711.29,3204.08 1814.18,3087.73C1937.86,2997.56 1866.73,2887.49 1834.51,2931.64Z" style="fill:rgb(167,205,254);fill-rule:nonzero;"/>
        </g>
        <g transform="matrix(0.0558786,0,0,0.0558786,-129.158,-177.433)">
            <path d="M1922.48,2693.16L1876.91,2704.55C1876.91,2704.55 1704.68,2664.29 1656.91,2610.96C1655.52,2609.42 1654.25,2607.87 1653.08,2606.31C1651.55,2604.25 1650.21,2602.18 1649.08,2600.1C1617.28,2541.49 1674.46,2524.17 1736.86,2547.88C1735.32,2547.04 1663.67,2508.27 1601.3,2478.18C1597.9,2476.53 1594.53,2474.92 1591.2,2473.34C1584.93,2470.36 1578.81,2467.51 1572.91,2464.82C1528.69,2444.66 1507.21,2422.75 1505.82,2404.65C1505.69,2403.04 1505.72,2401.47 1505.92,2399.93C1506.84,2392.45 1511.45,2385.76 1519.52,2380.32C1548,2361.1 1603.52,2373.45 1603.52,2373.45C1603.52,2373.45 1521.81,2339.29 1474.17,2300.4C1472.76,2299.25 1471.37,2298.09 1470.02,2296.92C1458.84,2287.31 1449.93,2277.47 1444.99,2267.82C1433.77,2245.89 1431.2,2226.83 1435.52,2212.76C1436,2211.21 1436.56,2209.71 1437.21,2208.28C1444.03,2193.12 1460.08,2185.16 1482.5,2187.84C1526.17,2193.07 1657.88,2328.6 1657.88,2328.6C1657.88,2328.6 1636.08,2252.28 1664.1,2234.37C1665.41,2233.52 1666.83,2232.81 1668.37,2232.25C1668.59,2232.16 1668.82,2232.08 1669.04,2232.01C1699.95,2221.63 1746.62,2320.58 1770.07,2407.94C1770.1,2396.11 1774.51,2385.94 1789.5,2385.8C1790.98,2385.79 1792.56,2385.87 1794.26,2386.05C1795.28,2386.17 1796.33,2386.32 1797.43,2386.51C1844.89,2394.83 1922.48,2693.16 1922.48,2693.16Z" style="fill:rgb(167,205,254);fill-rule:nonzero;"/>
        </g>
        <g transform="matrix(0.0558786,0,0,0.0558786,-129.158,-177.433)">
            <path d="M1902.15,2697.61L1900.08,2698.76L1898.04,2699.89C1898.02,2699.86 1897.91,2699.67 1897.73,2699.35C1895.04,2694.57 1874.91,2659.22 1839.76,2608.29L1656.91,2610.96C1655.52,2609.42 1654.25,2607.87 1653.08,2606.31L1836.53,2603.63C1815.88,2573.92 1790.33,2539.25 1760.34,2502.44C1754.37,2495.11 1748.12,2487.59 1741.62,2479.9L1601.3,2478.18C1597.9,2476.53 1594.53,2474.92 1591.2,2473.34L1737.58,2475.14C1723.06,2458.12 1707.27,2440.36 1690.28,2422.23L1505.82,2404.65C1505.69,2403.04 1505.72,2401.47 1505.92,2399.93L1685.39,2417.04C1641.72,2370.86 1590.4,2322.59 1532.67,2278.5L1474.17,2300.4C1472.76,2299.25 1471.37,2298.09 1470.02,2296.92L1528.24,2275.13C1498.91,2252.96 1467.95,2231.91 1435.52,2212.76C1436,2211.21 1436.56,2209.71 1437.21,2208.28C1493.04,2241.11 1548.45,2281.83 1602.51,2329.79C1648.53,2370.62 1693.66,2416.76 1737.05,2467.28L1664.1,2234.37C1665.41,2233.52 1666.83,2232.81 1668.37,2232.25L1744.84,2476.41C1751.29,2484.02 1757.69,2491.74 1764.06,2499.55C1778.98,2517.88 1792.81,2535.67 1805.49,2552.59L1789.5,2385.8C1790.98,2385.79 1792.56,2385.87 1794.26,2386.05L1810.93,2559.88C1869.34,2638.74 1901.76,2696.89 1902.15,2697.61Z" style="fill:white;fill-rule:nonzero;"/>
        </g>
        <g transform="matrix(0.0558786,0,0,0.0558786,-129.158,-177.433)">
            <path d="M1971.31,1685.97C1971.31,1685.97 1819.56,1738.74 1740.98,1690.3C1662.39,1641.87 1648.4,1553.7 1526.08,1542.05C1403.76,1530.4 1387.63,1462.55 1342.69,1430.34C1297.74,1398.12 1275.98,1363.82 1304.88,1353.26C1333.78,1342.71 1418.61,1377.6 1465.83,1356.59C1513.05,1335.58 1601.47,1382.33 1633.63,1395.38C1665.79,1408.42 1697.32,1415.97 1744.85,1397.7C1792.38,1379.44 1877.51,1446.08 1905.44,1456.27C1933.37,1466.46 2036.66,1506.77 2022.24,1546.33L1971.31,1685.97Z" style="fill:rgb(173,207,247);fill-rule:nonzero;"/>
        </g>
        <g transform="matrix(0.0558786,0,0,0.0558786,-129.158,-177.433)">
            <path d="M1993.65,1624.87L1610.15,1477.88L1613.74,1474.61L1548.74,1403.34L1541.57,1409.88L1600.06,1474.01L1378.84,1389.22L1376.24,1396.02L1592.56,1478.93L1496.09,1497.68L1497.94,1507.21L1607.49,1485.91L1607.23,1484.56L1991.05,1631.67L1993.65,1624.87Z" style="fill:rgb(113,173,234);fill-rule:nonzero;"/>
        </g>
        <g transform="matrix(0.0558786,0,0,0.0558786,-129.158,-177.433)">
            <path d="M2792.98,1579.13C2792.98,1579.13 2828.77,1422.5 2911.52,1381.6C2994.27,1340.69 3076.42,1375.61 3151.2,1278.1C3225.98,1180.6 3292.04,1202.93 3343.2,1181.93C3394.35,1160.92 3434.98,1160.67 3428.59,1190.77C3422.2,1220.87 3347.61,1274.26 3340.37,1325.44C3333.13,1376.61 3246.58,1426.76 3218.46,1447.09C3190.34,1467.43 3167.22,1490.15 3157.48,1540.13C3147.74,1590.11 3046.08,1626.9 3022.63,1645.17C2999.18,1663.44 2910.2,1729.61 2884.32,1696.39L2792.98,1579.13Z" style="fill:rgb(173,207,247);fill-rule:nonzero;"/>
        </g>
        <g transform="matrix(0.0558786,0,0,0.0558786,-129.158,-177.433)">
            <path d="M3256.75,1370.9L3255.01,1361.36L3169.62,1376.91L3358.87,1234.39L3354.49,1228.57L3169.43,1367.94L3204.72,1276.22L3195.66,1272.74L3155.59,1376.9L3156.88,1377.39L2828.53,1624.67L2832.91,1630.49L3160.98,1383.41L3161.85,1388.19L3256.75,1370.9Z" style="fill:rgb(113,173,234);fill-rule:nonzero;"/>
        </g>
        <g transform="matrix(0.0558786,0,0,0.0558786,-129.158,-177.433)">
            <path d="M1946.59,1639.63C1946.59,1639.63 1736.36,1601.35 1677.1,1493.82C1617.85,1386.3 1659.38,1275.07 1525.4,1181.48C1391.42,1087.9 1417.18,998.792 1386.24,932.07C1355.3,865.347 1352.56,811.377 1392.93,818.081C1433.3,824.786 1508.67,920.736 1577.09,927.327C1645.51,933.917 1717.27,1045.94 1745.95,1082.1C1774.64,1118.26 1806.2,1147.64 1873.18,1157.62C1940.17,1167.61 1995.08,1300.5 2020.74,1330.58C2046.41,1360.66 2139.6,1474.96 2096.99,1511.32L1946.59,1639.63Z" style="fill:rgb(196,220,255);fill-rule:nonzero;"/>
        </g>
        <g transform="matrix(0.0558786,0,0,0.0558786,-129.158,-177.433)">
            <path d="M2012.47,1583.53L1664.75,1162.25L1671.04,1160.81L1642.45,1035.74L1629.87,1038.61L1655.59,1151.15L1455.02,908.143L1447.55,914.305L1643.69,1151.94L1519.73,1110.48L1515.64,1122.72L1656.41,1169.8L1656.99,1168.06L2005,1589.69L2012.47,1583.53Z" style="fill:rgb(149,192,244);fill-rule:nonzero;"/>
        </g>
        <g transform="matrix(0.0558786,0,0,0.0558786,-129.158,-177.433)">
            <path d="M2638.81,445.171C2638.81,445.171 2883.44,753.759 2532.18,1056.21C2532.18,1056.21 2269.39,828.237 2638.81,445.171Z" style="fill:rgb(173,207,247);fill-rule:nonzero;"/>
        </g>
        <g transform="matrix(0.0558786,0,0,0.0558786,-129.158,-177.433)">
            <path d="M2636.46,466.786C2636.46,466.786 2636.49,472.931 2636.35,484.026C2636.8,476.672 2636.86,470.845 2636.46,466.786Z" style="fill:rgb(148,195,242);fill-rule:nonzero;"/>
        </g>
        <g transform="matrix(0.0558786,0,0,0.0558786,-129.158,-177.433)">
            <path d="M2666.78,577.218C2666.78,577.221 2666.77,577.231 2666.77,577.235C2666.82,577.191 2666.83,577.176 2666.78,577.218Z" style="fill:rgb(148,195,242);fill-rule:nonzero;"/>
        </g>
        <g transform="matrix(0.0558786,0,0,0.0558786,-129.158,-177.433)">
            <path d="M2565.71,892.727C2562.78,907.343 2559.94,921.404 2557.24,934.736L2565.71,892.727ZM2582.34,808.573C2580.65,817.259 2578.96,825.885 2577.28,834.422L2582.34,808.573ZM2605.38,686.927C2603.32,698.186 2601.21,709.586 2599.07,721.063L2605.38,686.927ZM2620.59,600.309C2619.63,606.042 2618.65,611.884 2617.63,617.824L2620.59,600.309ZM2668.63,745.678L2609.79,803.351L2609.79,803.363C2613.83,778.676 2617.26,753.997 2620.17,729.85L2677.84,659.307L2622.52,709.394L2622.51,709.516C2624.28,693.48 2625.82,677.757 2627.17,662.504L2627.16,662.627C2627.16,662.627 2665.25,578.77 2666.77,577.235C2665.51,578.404 2631.29,608.889 2631.25,609.523L2631.25,609.563C2634.99,552.938 2636.06,507.438 2636.35,484.026C2634.85,508.55 2628.94,550.094 2620.65,599.951C2620.63,599.933 2591.23,562.378 2585.01,552.835C2578.78,543.292 2617.57,618.049 2617.59,618.083C2613.86,639.904 2609.75,663.017 2605.41,686.778C2602.66,685.653 2568.03,623.128 2568.03,623.128L2599.06,721.11C2593.64,750.116 2587.99,779.594 2582.37,808.429C2582.37,808.42 2539.65,707.145 2539.94,709.189C2540.23,711.234 2577.21,834.711 2577.22,834.736C2573.3,854.681 2569.43,874.138 2565.71,892.709C2562.35,890.016 2506.01,810.827 2506.01,810.827L2557.22,934.801C2553.03,955.48 2549.16,974.389 2545.78,990.806C2542.14,985.526 2505.08,925.918 2506.83,929.424C2508.58,932.93 2541.64,1010.84 2541.64,1010.84L2545.77,990.858C2537.51,1030.96 2532.18,1056.21 2532.18,1056.21C2540.51,1041.99 2548.17,1026.39 2555.22,1009.71C2555.22,1009.71 2610.51,951.383 2611.98,948.463C2613.44,945.542 2562.28,992.125 2562.28,992.125L2562.16,992.444C2569.98,971.976 2576.99,950.155 2583.25,927.468C2583.23,927.553 2583.2,927.647 2583.19,927.707C2582.35,930.736 2631.64,854.684 2631.64,854.684L2593.09,888.675C2593.09,888.675 2593.08,888.712 2593.07,888.737C2597.36,870.325 2601.22,851.556 2604.71,832.665L2668.63,745.678Z" style="fill:rgb(148,195,242);fill-rule:nonzero;"/>
        </g>
        <g transform="matrix(0.0558786,0,0,0.0558786,-129.158,-177.433)">
            <path d="M2986.7,635.016C2986.7,635.016 3078.47,1017.97 2632.45,1144.18C2632.45,1144.18 2490.24,826.678 2986.7,635.016Z" style="fill:rgb(196,220,255);fill-rule:nonzero;"/>
        </g>
        <g transform="matrix(0.0558786,0,0,0.0558786,-129.158,-177.433)">
            <path d="M2968.1,669.215C2971.61,662.737 2974.11,657.475 2975.46,653.627C2975.46,653.627 2972.9,659.213 2968.1,669.215Z" style="fill:rgb(157,199,249);fill-rule:nonzero;"/>
        </g>
        <g transform="matrix(0.0558786,0,0,0.0558786,-129.158,-177.433)">
            <path d="M2782.34,940.734C2777.15,947.9 2771.98,955.013 2766.85,962.051L2782.34,940.734ZM2672.35,1090.6C2668,1096.47 2663.93,1101.95 2660.18,1106.99L2672.35,1090.6ZM2887.08,920.094L2809.42,947.593L2809.41,947.605C2887.06,833.424 2947.75,711.59 2968.1,669.215C2941.81,717.77 2859.13,834.867 2782.41,940.64C2782.41,940.632 2786.36,830.786 2785.77,832.763C2785.17,834.739 2766.66,962.297 2766.65,962.325C2745.27,991.693 2724.71,1019.71 2706.38,1044.58L2731.78,1010.04C2729.86,1006.18 2712.15,910.626 2712.15,910.626L2706.34,1044.64C2693.82,1061.62 2682.34,1077.14 2672.35,1090.6C2671.28,1084.28 2662.79,1014.6 2662.9,1018.52C2663.01,1022.44 2660.16,1107.02 2660.16,1107.02C2642.9,1130.23 2632.45,1144.18 2632.45,1144.18C2646,1134.8 2659.52,1123.88 2672.95,1111.72L2672.95,1111.73C2672.95,1111.73 2747.67,1082.14 2750.23,1080.1C2752.79,1078.07 2686.77,1098.75 2686.77,1098.75L2686.51,1098.99C2702.24,1083.72 2717.79,1066.89 2733.03,1048.96C2732.98,1049.02 2732.91,1049.1 2732.87,1049.15C2730.84,1051.54 2807.59,1003.35 2807.59,1003.35L2758.3,1017.93C2758.3,1017.93 2758.28,1017.95 2758.27,1017.97C2769.91,1003.08 2781.33,987.692 2792.45,972.031L2887.08,920.094Z" style="fill:rgb(157,199,249);fill-rule:nonzero;"/>
        </g>
        <g transform="matrix(0.0558786,0,0,0.0558786,-129.158,-177.433)">
            <path d="M2268.35,541.853C2268.35,541.853 2628.95,700.111 2460.03,1131.77C2460.03,1131.77 2121.11,1053.25 2268.35,541.853Z" style="fill:rgb(196,220,255);fill-rule:nonzero;"/>
        </g>
        <g transform="matrix(0.0558786,0,0,0.0558786,-129.158,-177.433)">
            <path d="M2284.36,577.341C2281.32,570.631 2278.64,565.456 2276.39,562.054C2276.39,562.054 2279.29,567.47 2284.36,577.341Z" style="fill:rgb(159,199,247);fill-rule:nonzero;"/>
        </g>
        <g transform="matrix(0.0558786,0,0,0.0558786,-129.158,-177.433)">
            <path d="M2354.86,645.462L2354.86,645.484C2354.89,645.413 2354.89,645.398 2354.86,645.462Z" style="fill:rgb(159,199,247);fill-rule:nonzero;"/>
        </g>
        <g transform="matrix(0.0558786,0,0,0.0558786,-129.158,-177.433)">
            <path d="M2413.17,971.617C2417.41,985.88 2421.47,999.611 2425.32,1012.64L2413.17,971.617ZM2388.48,889.406C2391.05,897.868 2393.59,906.276 2396.1,914.601L2388.48,889.406ZM2351.92,771.132C2355.38,782.052 2358.85,793.122 2362.33,804.276L2351.92,771.132ZM2324.84,687.474C2326.68,692.991 2328.54,698.619 2330.42,704.346L2324.84,687.474ZM2458.63,1079.89C2458.63,1079.89 2480.21,1002.47 2480.13,999.206C2480.06,995.94 2456.65,1061.04 2456.65,1061.04L2456.68,1061.39C2454.02,1039.64 2450,1017.07 2444.92,994.092C2444.94,994.178 2444.96,994.272 2444.98,994.333C2445.66,997.399 2453.63,907.125 2453.63,907.125L2435.46,955.204C2435.46,955.204 2435.47,955.24 2435.48,955.262C2430.65,936.986 2425.29,918.591 2419.52,900.269L2435.32,793.479L2410.31,871.979L2410.31,871.995C2402.33,848.287 2393.81,824.871 2385.08,802.168L2403.05,712.836L2377.59,782.987L2377.63,783.096C2371.69,768.097 2365.7,753.48 2359.76,739.37L2359.81,739.487C2359.81,739.487 2354.23,647.579 2354.86,645.484C2354.23,647.278 2338.32,690.059 2338.58,690.638L2338.59,690.673C2315.41,638.878 2295.06,598.169 2284.36,577.341C2294.51,599.716 2308.73,639.197 2324.73,687.141C2324.69,687.123 2281.15,667.698 2271.18,662.178C2261.21,656.657 2330.48,704.575 2330.51,704.597C2337.42,725.626 2344.61,747.976 2351.89,771.007C2348.93,771.299 2289.07,732.245 2289.07,732.245L2362.34,804.318C2371.12,832.491 2379.92,861.187 2388.45,889.299C2388.44,889.294 2303.3,819.774 2304.51,821.445C2305.73,823.116 2396.18,914.937 2396.21,914.958C2402.07,934.42 2407.76,953.426 2413.16,971.58C2408.92,970.773 2322.08,927.149 2322.08,927.149L2425.35,1012.75C2433.92,1041.79 2441.36,1067.29 2447.14,1087.16L2441.44,1067.6C2435.76,1064.64 2375.11,1029.3 2378.29,1031.58C2381.48,1033.86 2447.16,1087.24 2447.16,1087.24C2455.23,1115.02 2460.02,1131.77 2460.02,1131.77C2460.73,1115.31 2460.21,1097.93 2458.63,1079.88L2458.63,1079.89Z" style="fill:rgb(159,199,247);fill-rule:nonzero;"/>
        </g>
        <g transform="matrix(0.0558786,0,0,0.0558786,-129.158,-177.433)">
            <path d="M678.867,2459.33L678.867,2573.89C678.867,2582.18 672.141,2588.9 663.853,2588.9L574.18,2588.9C582.468,2588.9 589.181,2582.18 589.181,2573.89L589.181,2459.33C589.181,2451.04 582.468,2444.33 574.18,2444.33L663.853,2444.33C672.141,2444.33 678.867,2451.04 678.867,2459.33Z" style="fill:rgb(104,160,216);fill-rule:nonzero;"/>
        </g>
        <g transform="matrix(0.0558786,0,0,0.0558786,-129.158,-177.433)">
            <path d="M589.181,2459.33L589.181,2573.89C589.181,2582.18 582.468,2588.9 574.18,2588.9L241.665,2588.9C233.377,2588.9 226.65,2582.18 226.65,2573.89L226.65,2459.33C226.65,2451.04 233.377,2444.33 241.665,2444.33L574.18,2444.33C582.468,2444.33 589.181,2451.04 589.181,2459.33Z" style="fill:rgb(124,173,232);fill-rule:nonzero;"/>
        </g>
        <g transform="matrix(0.0558786,0,0,0.0558786,-129.158,-177.433)">
            <path d="M757.766,3097.13L757.766,3245.16C757.766,3283.56 715.733,3314.7 663.867,3314.7L525.628,3314.7C577.495,3314.7 619.527,3283.56 619.527,3245.16L619.527,3097.13L757.766,3097.13Z" style="fill:rgb(51,107,175);fill-rule:nonzero;"/>
        </g>
        <g transform="matrix(0.0558786,0,0,0.0558786,-129.158,-177.433)">
            <path d="M757.766,2643.45L757.766,2761.72L619.527,2761.72L619.527,2643.45C619.527,2605.04 577.495,2573.9 525.628,2573.9L663.867,2573.9C715.733,2573.9 757.766,2605.04 757.766,2643.45Z" style="fill:rgb(51,107,175);fill-rule:nonzero;"/>
        </g>
        <g transform="matrix(0.0558786,0,0,0.0558786,-129.158,-177.433)">
            <path d="M311.088,3314.7L242.272,3314.7C190.405,3314.7 148.359,3283.56 148.359,3245.16L148.359,3097.13L217.174,3097.13L217.174,3245.16C217.174,3283.56 259.221,3314.7 311.088,3314.7Z" style="fill:rgb(93,145,206);fill-rule:nonzero;"/>
        </g>
        <g transform="matrix(0.0558786,0,0,0.0558786,-129.158,-177.433)">
            <path d="M311.088,2573.9C259.221,2573.9 217.174,2605.04 217.174,2643.45L217.174,2761.72L148.359,2761.72L148.359,2643.45C148.359,2605.04 190.405,2573.9 242.272,2573.9L311.088,2573.9Z" style="fill:rgb(93,145,206);fill-rule:nonzero;"/>
        </g>
        <g transform="matrix(0.0558786,0,0,0.0558786,-129.158,-177.433)">
            <path d="M619.527,2643.45L619.527,3245.16C619.527,3283.56 577.495,3314.7 525.628,3314.7L311.088,3314.7C259.221,3314.7 217.174,3283.56 217.174,3245.16L217.174,2643.45C217.174,2605.04 259.221,2573.9 311.088,2573.9L525.628,2573.9C577.495,2573.9 619.527,2605.04 619.527,2643.45Z" style="fill:rgb(64,116,192);fill-rule:nonzero;"/>
        </g>
        <g transform="matrix(0.0558786,0,0,0.0558786,-129.158,-177.433)">
            <rect x="619.527" y="2761.72" width="138.239" height="335.41" style="fill:rgb(200,220,237);fill-rule:nonzero;"/>
        </g>
        <g transform="matrix(0.0558786,0,0,0.0558786,-129.158,-177.433)">
            <rect x="148.359" y="2761.72" width="68.815" height="335.41" style="fill:rgb(230,242,254);fill-rule:nonzero;"/>
        </g>
        <g transform="matrix(0.0558786,0,0,0.0558786,-129.158,-177.433)">
            <rect x="217.174" y="2761.72" width="402.353" height="335.41" style="fill:rgb(230,242,254);fill-rule:nonzero;"/>
        </g>
        <g transform="matrix(0.0558786,0,0,0.0558786,-129.158,-177.433)">
            <path d="M562.262,2959.86L493.903,2959.86C488.812,2959.86 484.685,2963.98 484.685,2969.07L484.685,3035.44C484.685,3040.53 480.558,3044.66 475.466,3044.66L429.555,3044.66C424.464,3044.66 420.337,3040.53 420.337,3035.44L420.337,2969.07C420.337,2963.98 416.209,2959.86 411.118,2959.86L343.258,2959.86C338.167,2959.86 334.039,2955.73 334.039,2950.64L334.039,2908.22C334.039,2903.13 338.167,2899 343.258,2899L411.118,2899C416.209,2899 420.337,2894.87 420.337,2889.78L420.337,2823.42C420.337,2818.33 424.464,2814.2 429.555,2814.2L475.466,2814.2C480.558,2814.2 484.685,2818.33 484.685,2823.42L484.685,2889.78C484.685,2894.87 488.812,2899 493.903,2899L562.262,2899C567.354,2899 571.48,2903.13 571.48,2908.22L571.48,2950.64C571.48,2955.73 567.354,2959.86 562.262,2959.86Z" style="fill:rgb(64,116,192);fill-rule:nonzero;"/>
        </g>
        <g transform="matrix(0.0558786,0,0,0.0558786,-129.158,-177.433)">
            <path d="M272.995,2561.61C267.625,2561.61 263.273,2557.25 263.273,2551.88L263.273,2467.43C263.273,2462.07 267.625,2457.71 272.995,2457.71C278.363,2457.71 282.715,2462.07 282.715,2467.43L282.715,2551.88C282.715,2557.25 278.363,2561.61 272.995,2561.61Z" style="fill:rgb(64,116,192);fill-rule:nonzero;"/>
        </g>
        <g transform="matrix(0.0558786,0,0,0.0558786,-129.158,-177.433)">
            <path d="M311.088,2561.61C305.719,2561.61 301.367,2557.25 301.367,2551.88L301.367,2467.43C301.367,2462.07 305.719,2457.71 311.088,2457.71C316.457,2457.71 320.809,2462.07 320.809,2467.43L320.809,2551.88C320.809,2557.25 316.457,2561.61 311.088,2561.61Z" style="fill:rgb(64,116,192);fill-rule:nonzero;"/>
        </g>
        <g transform="matrix(0.0558786,0,0,0.0558786,-129.158,-177.433)">
            <path d="M348.939,2561.61C343.57,2561.61 339.218,2557.25 339.218,2551.88L339.218,2467.43C339.218,2462.07 343.57,2457.71 348.939,2457.71C354.308,2457.71 358.66,2462.07 358.66,2467.43L358.66,2551.88C358.66,2557.25 354.308,2561.61 348.939,2561.61Z" style="fill:rgb(64,116,192);fill-rule:nonzero;"/>
        </g>
        <g transform="matrix(0.0558786,0,0,0.0558786,-129.158,-177.433)">
            <path d="M387.033,2561.61C381.664,2561.61 377.312,2557.25 377.312,2551.88L377.312,2467.43C377.312,2462.07 381.664,2457.71 387.033,2457.71C392.401,2457.71 396.753,2462.07 396.753,2467.43L396.753,2551.88C396.753,2557.25 392.401,2561.61 387.033,2561.61Z" style="fill:rgb(64,116,192);fill-rule:nonzero;"/>
        </g>
        <g transform="matrix(0.0558786,0,0,0.0558786,-129.158,-177.433)">
            <path d="M428.448,2561.61C423.079,2561.61 418.727,2557.25 418.727,2551.88L418.727,2467.43C418.727,2462.07 423.079,2457.71 428.448,2457.71C433.816,2457.71 438.168,2462.07 438.168,2467.43L438.168,2551.88C438.168,2557.25 433.816,2561.61 428.448,2561.61Z" style="fill:rgb(64,116,192);fill-rule:nonzero;"/>
        </g>
        <g transform="matrix(0.0558786,0,0,0.0558786,-129.158,-177.433)">
            <path d="M466.541,2561.61C461.172,2561.61 456.82,2557.25 456.82,2551.88L456.82,2467.43C456.82,2462.07 461.172,2457.71 466.541,2457.71C471.91,2457.71 476.262,2462.07 476.262,2467.43L476.262,2551.88C476.262,2557.25 471.91,2561.61 466.541,2561.61Z" style="fill:rgb(64,116,192);fill-rule:nonzero;"/>
        </g>
        <g transform="matrix(0.0558786,0,0,0.0558786,-129.158,-177.433)">
            <path d="M504.393,2561.61C499.024,2561.61 494.671,2557.25 494.671,2551.88L494.671,2467.43C494.671,2462.07 499.024,2457.71 504.393,2457.71C509.761,2457.71 514.112,2462.07 514.112,2467.43L514.112,2551.88C514.112,2557.25 509.761,2561.61 504.393,2561.61Z" style="fill:rgb(64,116,192);fill-rule:nonzero;"/>
        </g>
        <g transform="matrix(0.0558786,0,0,0.0558786,-129.158,-177.433)">
            <path d="M542.486,2561.61C537.117,2561.61 532.765,2557.25 532.765,2551.88L532.765,2467.43C532.765,2462.07 537.117,2457.71 542.486,2457.71C547.854,2457.71 552.207,2462.07 552.207,2467.43L552.207,2551.88C552.207,2557.25 547.854,2561.61 542.486,2561.61Z" style="fill:rgb(64,116,192);fill-rule:nonzero;"/>
        </g>
        <g transform="matrix(0.0558786,0,0,0.0558786,-129.158,-177.433)">
            <path d="M581.555,2561.61C576.187,2561.61 571.834,2557.25 571.834,2551.88L571.834,2467.43C571.834,2462.07 576.187,2457.71 581.555,2457.71C586.924,2457.71 591.276,2462.07 591.276,2467.43L591.276,2551.88C591.276,2557.25 586.924,2561.61 581.555,2561.61Z" style="fill:rgb(64,116,192);fill-rule:nonzero;"/>
        </g>
        <g transform="matrix(0.0558786,0,0,0.0558786,-129.158,-177.433)">
            <path d="M619.407,2561.61C614.038,2561.61 609.686,2557.25 609.686,2551.88L609.686,2467.43C609.686,2462.07 614.038,2457.71 619.407,2457.71C624.775,2457.71 629.127,2462.07 629.127,2467.43L629.127,2551.88C629.127,2557.25 624.775,2561.61 619.407,2561.61Z" style="fill:rgb(64,116,192);fill-rule:nonzero;"/>
        </g>
        <g transform="matrix(0.0558786,0,0,0.0558786,-129.158,-177.433)">
            <path d="M2964.72,3316.85L1849.82,3316.85C1808.33,3316.85 1774.69,3283.21 1774.69,3241.72L1774.69,1062.17C1774.69,1020.68 1808.33,987.042 1849.82,987.042L2964.72,987.042C3006.21,987.042 3039.85,1020.68 3039.85,1062.17L3039.85,3241.72C3039.85,3283.21 3006.21,3316.85 2964.72,3316.85Z" style="fill:rgb(48,60,102);fill-rule:nonzero;"/>
        </g>
        <g transform="matrix(0.0558786,0,0,0.0558786,-129.158,-177.433)">
            <path d="M2972.84,1141.99L2972.84,3161.9C2972.84,3199.65 2942.24,3230.24 2904.5,3230.24L1910.04,3230.24C1885.88,3230.24 1864.65,3217.7 1852.49,3198.78C1845.66,3188.14 1841.7,3175.49 1841.7,3161.9L1841.7,1141.99C1841.7,1104.24 1872.3,1073.65 1910.04,1073.65L2904.5,1073.65C2942.24,1073.65 2972.84,1104.24 2972.84,1141.99Z" style="fill:rgb(230,242,254);fill-rule:nonzero;"/>
        </g>
        <g transform="matrix(0.0558786,0,0,0.0558786,-129.158,-177.433)">
            <path d="M2972.84,1244.3L2972.84,1442.47L1841.7,2157.89L1841.7,1959.71L2972.84,1244.3Z" style="fill:white;fill-rule:nonzero;"/>
        </g>
        <g transform="matrix(0.0558786,0,0,0.0558786,-129.158,-177.433)">
            <path d="M2972.84,1566.5L2972.84,1665.59L1841.7,2381.01L1841.7,2281.91L2972.84,1566.5Z" style="fill:white;fill-rule:nonzero;"/>
        </g>
        <g transform="matrix(0.0558786,0,0,0.0558786,-129.158,-177.433)">
            <path d="M2972.84,2141.94L2972.84,2277.35L1841.7,2992.77L1841.7,2857.36L2972.84,2141.94Z" style="fill:white;fill-rule:nonzero;"/>
        </g>
        <g transform="matrix(0.0558786,0,0,0.0558786,-129.158,-177.433)">
            <path d="M2972.84,2406.62L2972.84,2490.19L1852.49,3198.78C1845.66,3188.14 1841.7,3175.49 1841.7,3161.9L1841.7,3122.04L2972.84,2406.62Z" style="fill:white;fill-rule:nonzero;"/>
        </g>
        <g transform="matrix(0.0558786,0,0,0.0558786,-129.158,-177.433)">
            <path d="M3018.62,2897.97L3470.86,2897.97L3394.19,2781.23L3095.29,2781.23L3018.62,2897.97ZM3498.29,2912.78L2991.18,2912.78L3087.3,2766.43L3402.18,2766.43L3498.29,2912.78Z" style="fill:rgb(48,60,102);fill-rule:nonzero;"/>
        </g>
        <g transform="matrix(0.0558786,0,0,0.0558786,-129.158,-177.433)">
            <path d="M3032.34,2890.57L3457.14,2890.57L3390.19,2788.64L3099.28,2788.64L3032.34,2890.57ZM3004.9,2905.37L3484.58,2905.37L3398.18,2773.83L3484.58,2905.37L3004.9,2905.37L3091.29,2773.83L3004.9,2905.37ZM3512.01,2920.18L2977.47,2920.18L3083.31,2759.03L3406.17,2759.03L3512.01,2920.18Z" style="fill:rgb(48,60,102);fill-rule:nonzero;"/>
        </g>
        <g transform="matrix(0.0558786,0,0,0.0558786,-129.158,-177.433)">
            <path d="M3726.57,3390.31L3726.57,3436.91C3726.57,3454.87 3712.02,3469.43 3694.06,3469.43L2826.95,3469.43C2808.99,3469.43 2794.44,3454.87 2794.44,3436.91L2794.44,2959.13C2794.44,2920.7 2813.94,2886.84 2843.59,2866.88C2843.08,2871.19 2842.82,2875.57 2842.82,2880.02L2842.82,3357.8C2842.82,3375.76 2857.38,3390.31 2875.33,3390.31L3726.57,3390.31Z" style="fill:rgb(237,89,74);fill-rule:nonzero;"/>
        </g>
        <g transform="matrix(0.0558786,0,0,0.0558786,-129.158,-177.433)">
            <path d="M3726.57,2959.13L3726.57,3390.31L2875.33,3390.31C2857.38,3390.31 2842.82,3375.76 2842.82,3357.8L2842.82,2880.02C2842.82,2875.57 2843.08,2871.19 2843.59,2866.88C2861.29,2854.96 2882.62,2848 2905.57,2848L3615.44,2848C3646.12,2848 3673.91,2860.44 3694.02,2880.55C3705.81,2892.33 3714.96,2906.75 3720.51,2922.84C3723.52,2931.54 3725.47,2940.72 3726.22,2950.24C3726.45,2953.18 3726.57,2956.14 3726.57,2959.13Z" style="fill:rgb(251,110,90);fill-rule:nonzero;"/>
        </g>
        <g transform="matrix(0.0558786,0,0,0.0558786,-129.158,-177.433)">
            <path d="M3753.98,2977.46C3753.98,2984.98 3750.93,2991.79 3746,2996.71C3741.08,3001.64 3734.27,3004.68 3726.76,3004.68L2796.89,3004.68C2781.87,3004.68 2769.68,2992.5 2769.68,2977.46C2769.68,2974.49 2770.16,2971.64 2771.04,2968.96C2774.61,2979.82 2784.83,2987.67 2796.89,2987.67L3726.76,2987.67C3734.27,2987.67 3741.08,2984.63 3746,2979.7C3748.98,2976.72 3751.27,2973.05 3752.62,2968.96C3753.5,2971.64 3753.98,2974.49 3753.98,2977.46Z" style="fill:rgb(224,138,79);fill-rule:nonzero;"/>
        </g>
        <g transform="matrix(0.0558786,0,0,0.0558786,-129.158,-177.433)">
            <path d="M3752.62,2968.96C3751.27,2973.05 3748.98,2976.72 3746,2979.7C3741.08,2984.63 3734.27,2987.67 3726.76,2987.67L2796.89,2987.67C2784.83,2987.67 2774.61,2979.82 2771.04,2968.96C2772.38,2964.86 2774.68,2961.19 2777.66,2958.22C2782.58,2953.29 2789.38,2950.24 2796.89,2950.24L3726.76,2950.24C3738.82,2950.24 3749.05,2958.09 3752.62,2968.96Z" style="fill:rgb(240,156,94);fill-rule:nonzero;"/>
        </g>
        <g transform="matrix(0.0558786,0,0,0.0558786,-129.158,-177.433)">
            <path d="M3726.22,2950.24L2833,2950.24L2833,2922.84L3720.51,2922.84C3723.52,2931.54 3725.47,2940.72 3726.22,2950.24Z" style="fill:rgb(237,89,74);fill-rule:nonzero;"/>
        </g>
        <g transform="matrix(0.0558786,0,0,0.0558786,-129.158,-177.433)">
            <path d="M3423.09,3232.49L3305.94,3232.49L3305.94,3346.95L3219.08,3346.95L3219.08,3232.49L3102.6,3232.49L3102.6,3150.35L3219.08,3150.35L3219.08,3035.89L3305.94,3035.89L3305.94,3150.35L3423.09,3150.35L3423.09,3232.49Z" style="fill:white;fill-rule:nonzero;"/>
        </g>
        <g transform="matrix(0.0558786,0,0,0.0558786,-129.158,-177.433)">
            <path d="M969.902,3101.13L969.902,3462.69C969.902,3481.05 955.022,3495.93 936.666,3495.93L455.773,3495.93C437.417,3495.93 422.536,3481.05 422.536,3462.69L422.536,3101.13C422.536,3082.77 437.417,3067.89 455.773,3067.89L936.666,3067.89C955.022,3067.89 969.902,3082.77 969.902,3101.13Z" style="fill:rgb(146,190,239);fill-rule:nonzero;"/>
        </g>
        <g transform="matrix(0.0558786,0,0,0.0558786,-129.158,-177.433)">
            <path d="M937.406,3122.6L937.406,3441.23C937.406,3457.4 924.292,3470.52 908.116,3470.52L484.323,3470.52C468.146,3470.52 455.032,3457.4 455.032,3441.23L455.032,3122.6C455.032,3106.42 468.146,3093.31 484.323,3093.31L908.116,3093.31C924.292,3093.31 937.406,3106.42 937.406,3122.6Z" style="fill:white;fill-rule:nonzero;"/>
        </g>
        <g transform="matrix(0.0558786,0,0,0.0558786,-129.158,-177.433)">
            <rect x="453.617" y="3279.25" width="503.458" height="11.37" style="fill:rgb(146,190,239);fill-rule:nonzero;"/>
        </g>
        <g transform="matrix(0.0558786,0,0,0.0558786,-129.158,-177.433)">
            <path d="M553.512,3348.9C569.58,3352.64 581.549,3367.06 581.549,3384.27C581.549,3404.33 565.285,3420.59 545.231,3420.59C537.551,3420.59 530.417,3418.2 524.55,3414.13C527.207,3414.75 529.979,3415.08 532.831,3415.08C552.891,3415.08 569.148,3398.82 569.148,3378.76C569.148,3366.39 562.958,3355.46 553.512,3348.9Z" style="fill:rgb(232,89,75);fill-rule:nonzero;"/>
        </g>
        <g transform="matrix(0.0558786,0,0,0.0558786,-129.158,-177.433)">
            <path d="M545.231,3347.95C548.083,3347.95 550.854,3348.28 553.512,3348.9C562.958,3355.46 569.148,3366.39 569.148,3378.76C569.148,3398.82 552.891,3415.08 532.831,3415.08C529.979,3415.08 527.207,3414.75 524.55,3414.13C517.719,3409.39 512.594,3402.37 510.275,3394.16C528.475,3392.19 542.635,3376.78 542.635,3358.06C542.635,3354.63 542.156,3351.32 541.273,3348.17C542.574,3348.03 543.896,3347.95 545.231,3347.95Z" style="fill:rgb(251,110,90);fill-rule:nonzero;"/>
        </g>
        <g transform="matrix(0.0558786,0,0,0.0558786,-129.158,-177.433)">
            <path d="M541.273,3348.17C542.156,3351.32 542.635,3354.63 542.635,3358.06C542.635,3376.78 528.475,3392.19 510.275,3394.16C509.385,3391.02 508.913,3387.7 508.913,3384.27C508.913,3365.54 523.073,3350.14 541.273,3348.17Z" style="fill:rgb(255,154,143);fill-rule:nonzero;"/>
        </g>
        <g transform="matrix(0.0558786,0,0,0.0558786,-129.158,-177.433)">
            <path d="M553.512,3155.74C569.58,3159.48 581.549,3173.89 581.549,3191.1C581.549,3211.16 565.285,3227.42 545.231,3227.42C537.551,3227.42 530.417,3225.03 524.55,3220.96C527.207,3221.58 529.979,3221.91 532.831,3221.91C552.891,3221.91 569.148,3205.65 569.148,3185.59C569.148,3173.22 562.958,3162.29 553.512,3155.74Z" style="fill:rgb(232,89,75);fill-rule:nonzero;"/>
        </g>
        <g transform="matrix(0.0558786,0,0,0.0558786,-129.158,-177.433)">
            <path d="M545.231,3154.78C548.083,3154.78 550.854,3155.11 553.512,3155.74C562.958,3162.29 569.148,3173.22 569.148,3185.59C569.148,3205.65 552.891,3221.91 532.831,3221.91C529.979,3221.91 527.207,3221.58 524.55,3220.96C517.719,3216.22 512.594,3209.2 510.275,3200.99C528.475,3199.03 542.635,3183.62 542.635,3164.89C542.635,3161.47 542.156,3158.15 541.273,3155C542.574,3154.86 543.896,3154.78 545.231,3154.78Z" style="fill:rgb(251,110,90);fill-rule:nonzero;"/>
        </g>
        <g transform="matrix(0.0558786,0,0,0.0558786,-129.158,-177.433)">
            <path d="M541.273,3155C542.156,3158.15 542.635,3161.47 542.635,3164.89C542.635,3183.62 528.475,3199.03 510.275,3200.99C509.385,3197.85 508.913,3194.53 508.913,3191.1C508.913,3172.38 523.073,3156.97 541.273,3155Z" style="fill:rgb(255,154,143);fill-rule:nonzero;"/>
        </g>
        <g transform="matrix(0.0558786,0,0,0.0558786,-129.158,-177.433)">
            <path d="M654.016,3348.9C670.084,3352.64 682.053,3367.06 682.053,3384.27C682.053,3404.33 665.789,3420.59 645.735,3420.59C638.055,3420.59 630.921,3418.2 625.054,3414.13C627.711,3414.75 630.482,3415.08 633.335,3415.08C653.396,3415.08 669.653,3398.82 669.653,3378.76C669.653,3366.39 663.463,3355.46 654.016,3348.9Z" style="fill:rgb(232,89,75);fill-rule:nonzero;"/>
        </g>
        <g transform="matrix(0.0558786,0,0,0.0558786,-129.158,-177.433)">
            <path d="M645.735,3347.95C648.588,3347.95 651.359,3348.28 654.016,3348.9C663.463,3355.46 669.653,3366.39 669.653,3378.76C669.653,3398.82 653.396,3415.08 633.335,3415.08C630.482,3415.08 627.711,3414.75 625.054,3414.13C618.224,3409.39 613.099,3402.37 610.779,3394.16C628.979,3392.19 643.139,3376.78 643.139,3358.06C643.139,3354.63 642.661,3351.32 641.777,3348.17C643.079,3348.03 644.4,3347.95 645.735,3347.95Z" style="fill:rgb(251,110,90);fill-rule:nonzero;"/>
        </g>
        <g transform="matrix(0.0558786,0,0,0.0558786,-129.158,-177.433)">
            <path d="M641.777,3348.17C642.661,3351.32 643.139,3354.63 643.139,3358.06C643.139,3376.78 628.979,3392.19 610.779,3394.16C609.889,3391.02 609.417,3387.7 609.417,3384.27C609.417,3365.54 623.578,3350.14 641.777,3348.17Z" style="fill:rgb(255,154,143);fill-rule:nonzero;"/>
        </g>
        <g transform="matrix(0.0558786,0,0,0.0558786,-129.158,-177.433)">
            <path d="M654.016,3155.74C670.084,3159.48 682.053,3173.89 682.053,3191.1C682.053,3211.16 665.789,3227.42 645.735,3227.42C638.055,3227.42 630.921,3225.03 625.054,3220.96C627.711,3221.58 630.482,3221.91 633.335,3221.91C653.396,3221.91 669.653,3205.65 669.653,3185.59C669.653,3173.22 663.463,3162.29 654.016,3155.74Z" style="fill:rgb(232,89,75);fill-rule:nonzero;"/>
        </g>
        <g transform="matrix(0.0558786,0,0,0.0558786,-129.158,-177.433)">
            <path d="M645.735,3154.78C648.588,3154.78 651.359,3155.11 654.016,3155.74C663.463,3162.29 669.653,3173.22 669.653,3185.59C669.653,3205.65 653.396,3221.91 633.335,3221.91C630.482,3221.91 627.711,3221.58 625.054,3220.96C618.224,3216.22 613.099,3209.2 610.779,3200.99C628.979,3199.03 643.139,3183.62 643.139,3164.89C643.139,3161.47 642.661,3158.15 641.777,3155C643.079,3154.86 644.4,3154.78 645.735,3154.78Z" style="fill:rgb(251,110,90);fill-rule:nonzero;"/>
        </g>
        <g transform="matrix(0.0558786,0,0,0.0558786,-129.158,-177.433)">
            <path d="M641.777,3155C642.661,3158.15 643.139,3161.47 643.139,3164.89C643.139,3183.62 628.979,3199.03 610.779,3200.99C609.889,3197.85 609.417,3194.53 609.417,3191.1C609.417,3172.38 623.578,3156.97 641.777,3155Z" style="fill:rgb(255,154,143);fill-rule:nonzero;"/>
        </g>
        <g transform="matrix(0.0558786,0,0,0.0558786,-129.158,-177.433)">
            <path d="M755.882,3348.9C771.951,3352.64 783.92,3367.06 783.92,3384.27C783.92,3404.33 767.655,3420.59 747.602,3420.59C739.921,3420.59 732.787,3418.2 726.921,3414.13C729.578,3414.75 732.349,3415.08 735.201,3415.08C755.262,3415.08 771.519,3398.82 771.519,3378.76C771.519,3366.39 765.329,3355.46 755.882,3348.9Z" style="fill:rgb(232,89,75);fill-rule:nonzero;"/>
        </g>
        <g transform="matrix(0.0558786,0,0,0.0558786,-129.158,-177.433)">
            <path d="M747.602,3347.95C750.454,3347.95 753.226,3348.28 755.882,3348.9C765.329,3355.46 771.519,3366.39 771.519,3378.76C771.519,3398.82 755.262,3415.08 735.201,3415.08C732.349,3415.08 729.578,3414.75 726.921,3414.13C720.09,3409.39 714.965,3402.37 712.646,3394.16C730.845,3392.19 745.006,3376.78 745.006,3358.06C745.006,3354.63 744.527,3351.32 743.644,3348.17C744.945,3348.03 746.267,3347.95 747.602,3347.95Z" style="fill:rgb(251,110,90);fill-rule:nonzero;"/>
        </g>
        <g transform="matrix(0.0558786,0,0,0.0558786,-129.158,-177.433)">
            <path d="M743.644,3348.17C744.527,3351.32 745.006,3354.63 745.006,3358.06C745.006,3376.78 730.845,3392.19 712.646,3394.16C711.755,3391.02 711.284,3387.7 711.284,3384.27C711.284,3365.54 725.444,3350.14 743.644,3348.17Z" style="fill:rgb(255,154,143);fill-rule:nonzero;"/>
        </g>
        <g transform="matrix(0.0558786,0,0,0.0558786,-129.158,-177.433)">
            <path d="M755.882,3155.74C771.951,3159.48 783.92,3173.89 783.92,3191.1C783.92,3211.16 767.655,3227.42 747.602,3227.42C739.921,3227.42 732.787,3225.03 726.921,3220.96C729.578,3221.58 732.349,3221.91 735.201,3221.91C755.262,3221.91 771.519,3205.65 771.519,3185.59C771.519,3173.22 765.329,3162.29 755.882,3155.74Z" style="fill:rgb(232,89,75);fill-rule:nonzero;"/>
        </g>
        <g transform="matrix(0.0558786,0,0,0.0558786,-129.158,-177.433)">
            <path d="M747.602,3154.78C750.454,3154.78 753.226,3155.11 755.882,3155.74C765.329,3162.29 771.519,3173.22 771.519,3185.59C771.519,3205.65 755.262,3221.91 735.201,3221.91C732.349,3221.91 729.578,3221.58 726.921,3220.96C720.09,3216.22 714.965,3209.2 712.646,3200.99C730.845,3199.03 745.006,3183.62 745.006,3164.89C745.006,3161.47 744.527,3158.15 743.644,3155C744.945,3154.86 746.267,3154.78 747.602,3154.78Z" style="fill:rgb(251,110,90);fill-rule:nonzero;"/>
        </g>
        <g transform="matrix(0.0558786,0,0,0.0558786,-129.158,-177.433)">
            <path d="M743.644,3155C744.527,3158.15 745.006,3161.47 745.006,3164.89C745.006,3183.62 730.845,3199.03 712.646,3200.99C711.755,3197.85 711.284,3194.53 711.284,3191.1C711.284,3172.38 725.444,3156.97 743.644,3155Z" style="fill:rgb(255,154,143);fill-rule:nonzero;"/>
        </g>
        <g transform="matrix(0.0558786,0,0,0.0558786,-129.158,-177.433)">
            <path d="M864.343,3348.9C880.412,3352.64 892.381,3367.06 892.381,3384.27C892.381,3404.33 876.117,3420.59 856.063,3420.59C848.382,3420.59 841.248,3418.2 835.382,3414.13C838.039,3414.75 840.81,3415.08 843.663,3415.08C863.723,3415.08 879.98,3398.82 879.98,3378.76C879.98,3366.39 873.79,3355.46 864.343,3348.9Z" style="fill:rgb(232,89,75);fill-rule:nonzero;"/>
        </g>
        <g transform="matrix(0.0558786,0,0,0.0558786,-129.158,-177.433)">
            <path d="M856.063,3347.95C858.915,3347.95 861.687,3348.28 864.343,3348.9C873.79,3355.46 879.98,3366.39 879.98,3378.76C879.98,3398.82 863.723,3415.08 843.663,3415.08C840.81,3415.08 838.039,3414.75 835.382,3414.13C828.551,3409.39 823.426,3402.37 821.107,3394.16C839.306,3392.19 853.467,3376.78 853.467,3358.06C853.467,3354.63 852.988,3351.32 852.104,3348.17C853.406,3348.03 854.728,3347.95 856.063,3347.95Z" style="fill:rgb(251,110,90);fill-rule:nonzero;"/>
        </g>
        <g transform="matrix(0.0558786,0,0,0.0558786,-129.158,-177.433)">
            <path d="M852.104,3348.17C852.988,3351.32 853.467,3354.63 853.467,3358.06C853.467,3376.78 839.306,3392.19 821.107,3394.16C820.217,3391.02 819.745,3387.7 819.745,3384.27C819.745,3365.54 833.905,3350.14 852.104,3348.17Z" style="fill:rgb(255,154,143);fill-rule:nonzero;"/>
        </g>
        <g transform="matrix(0.0558786,0,0,0.0558786,-129.158,-177.433)">
            <path d="M864.343,3155.74C880.412,3159.48 892.381,3173.89 892.381,3191.1C892.381,3211.16 876.117,3227.42 856.063,3227.42C848.382,3227.42 841.248,3225.03 835.382,3220.96C838.039,3221.58 840.81,3221.91 843.663,3221.91C863.723,3221.91 879.98,3205.65 879.98,3185.59C879.98,3173.22 873.79,3162.29 864.343,3155.74Z" style="fill:rgb(232,89,75);fill-rule:nonzero;"/>
        </g>
        <g transform="matrix(0.0558786,0,0,0.0558786,-129.158,-177.433)">
            <path d="M856.063,3154.78C858.915,3154.78 861.687,3155.11 864.343,3155.74C873.79,3162.29 879.98,3173.22 879.98,3185.59C879.98,3205.65 863.723,3221.91 843.663,3221.91C840.81,3221.91 838.039,3221.58 835.382,3220.96C828.551,3216.22 823.426,3209.2 821.107,3200.99C839.306,3199.03 853.467,3183.62 853.467,3164.89C853.467,3161.47 852.988,3158.15 852.104,3155C853.406,3154.86 854.728,3154.78 856.063,3154.78Z" style="fill:rgb(251,110,90);fill-rule:nonzero;"/>
        </g>
        <g transform="matrix(0.0558786,0,0,0.0558786,-129.158,-177.433)">
            <path d="M852.104,3155C852.988,3158.15 853.467,3161.47 853.467,3164.89C853.467,3183.62 839.306,3199.03 821.107,3200.99C820.217,3197.85 819.745,3194.53 819.745,3191.1C819.745,3172.38 833.905,3156.97 852.104,3155Z" style="fill:rgb(255,154,143);fill-rule:nonzero;"/>
        </g>
        <g transform="matrix(0.0558786,0,0,0.0558786,-129.158,-177.433)">
            <path d="M1254.45,3244.11L1175.26,3244.11L1175.26,3305.42C1175.26,3310.54 1179.42,3314.7 1184.54,3314.7L1324.37,3314.7C1329.49,3314.7 1333.64,3310.54 1333.64,3305.42L1333.64,3296.51C1333.64,3292.09 1330.52,3288.28 1326.19,3287.41L1282.85,3278.75C1266.34,3275.44 1254.45,3260.94 1254.45,3244.11Z" style="fill:rgb(251,110,90);fill-rule:nonzero;"/>
        </g>
        <g transform="matrix(0.0558786,0,0,0.0558786,-129.158,-177.433)">
            <path d="M1004.1,2760.33L1017.11,3244.11L1099.92,3244.11L1156.94,2760.33L1206.49,2965.81L1172.55,3244.11L1256.72,3244.11C1256.72,3244.11 1307.85,2959.93 1309.66,2946.35C1311.47,2932.78 1272.48,2723.07 1272.48,2723.07L1213.1,2680.83C1213.1,2680.83 997.189,2701.92 1004.1,2760.33Z" style="fill:rgb(64,116,192);fill-rule:nonzero;"/>
        </g>
        <g transform="matrix(0.0558786,0,0,0.0558786,-129.158,-177.433)">
            <path d="M938.365,2148.82C938.365,2148.82 987.773,2120.67 1007.99,2108.3C1028.2,2095.93 1036.8,2092.92 1036.8,2092.92L1137.93,2120.87L1157.14,2094.26C1157.14,2094.26 1231.64,2128.21 1238.37,2137.26C1245.1,2146.31 1279.79,2245.86 1279.79,2245.86L1338.85,2159.2L1343.15,2161.7L1390.21,2187.72L1350.84,2251.29L1320.9,2301.75L1287.26,2305.37L1279.79,2330.48L1216.43,2449.95C1216.43,2449.95 1140.01,2472.96 1135.22,2475.06C1130.42,2477.17 1036.8,2392.48 1036.8,2392.48C1036.8,2392.48 981.815,2331.84 981.137,2326.75C980.458,2321.66 968.014,2254.91 964.393,2245.86C960.773,2236.81 938.365,2148.82 938.365,2148.82Z" style="fill:rgb(162,223,242);fill-rule:nonzero;"/>
        </g>
        <g transform="matrix(0.0558786,0,0,0.0558786,-129.158,-177.433)">
            <path d="M1209.2,2166.67C1209.2,2166.67 1221.42,2254.91 1234.09,2282.97C1246.76,2311.03 1274.82,2318.43 1297.44,2318.57C1320.07,2318.72 1350.84,2251.29 1350.84,2251.29C1350.84,2251.29 1311.64,2286.79 1268.03,2268.94C1224.41,2251.1 1209.2,2166.67 1209.2,2166.67Z" style="fill:rgb(137,204,219);fill-rule:nonzero;"/>
        </g>
        <g transform="matrix(0.0558786,0,0,0.0558786,-129.158,-177.433)">
            <path d="M1157.14,2094.26L1191.1,2157.17L1167.57,2224.14C1167.57,2224.14 1158.97,2180.7 1158.97,2177.99C1158.97,2175.27 1154,2152.19 1154.22,2147.9C1154.45,2143.6 1151.73,2097.89 1151.73,2097.89L1157.14,2094.26Z" style="fill:rgb(118,194,206);fill-rule:nonzero;"/>
        </g>
        <g transform="matrix(0.0558786,0,0,0.0558786,-129.158,-177.433)">
            <path d="M1053.09,2077.83L1036.8,2092.92C1036.8,2092.92 1062.53,2143.82 1098.2,2175.73C1133.86,2207.63 1167.57,2224.14 1167.57,2224.14L1154.22,2147.9L1108.74,2119.84L1053.09,2077.83Z" style="fill:rgb(183,235,247);fill-rule:nonzero;"/>
        </g>
        <g transform="matrix(0.0558786,0,0,0.0558786,-129.158,-177.433)">
            <path d="M1279.79,2734.35L1292.46,2734.35L1292.46,2352.66L1250.83,2337.99C1250.83,2337.99 1222.52,2400.67 1220.97,2405.15C1219.42,2409.62 1180.96,2489.84 1180.96,2489.84L1185.67,2549.05L1187.59,2660.36L1279.79,2734.35Z" style="fill:rgb(162,223,242);fill-rule:nonzero;"/>
        </g>
        <g transform="matrix(0.0558786,0,0,0.0558786,-129.158,-177.433)">
            <path d="M1215.31,2734.35C1215.31,2734.35 1205.13,2735.48 1204.68,2734.35C1204.22,2733.22 1194.72,2682.99 1196.98,2676.66C1199.25,2670.32 1213.48,2631.37 1213.48,2631.37L1223.68,2635.93L1229.57,2700.19L1215.31,2734.35Z" style="fill:rgb(137,204,219);fill-rule:nonzero;"/>
        </g>
        <g transform="matrix(0.0558786,0,0,0.0558786,-129.158,-177.433)">
            <path d="M1269.92,2508.12L1123.95,2451.19L1206.82,2238.71L1352.79,2295.64L1269.92,2508.12Z" style="fill:rgb(240,156,94);fill-rule:nonzero;"/>
        </g>
        <g transform="matrix(0.0558786,0,0,0.0558786,-129.158,-177.433)">
            <path d="M1202.56,2485.71L1180.02,2475.74L1142.68,2465.56L1053.09,2468.27L993.354,2510.36L976.611,2583.66L979.779,2756.75C979.779,2756.75 1070.73,2771.68 1132.5,2769.65C1194.27,2767.61 1213.95,2758.79 1213.95,2758.79L1215.31,2734.35L1215.31,2572.13L1202.56,2485.71Z" style="fill:rgb(162,223,242);fill-rule:nonzero;"/>
        </g>
        <g transform="matrix(0.0558786,0,0,0.0558786,-129.158,-177.433)">
            <path d="M1193.14,2425.96L1196.53,2412.39L1142.68,2399.27L1059.65,2363.82C1059.65,2363.82 1026.39,2330.03 1026.39,2328.82C1026.39,2327.62 1014.02,2263.06 1014.02,2263.06L999.689,2204.23C999.689,2204.23 991.092,2160.34 976.611,2146.76C962.131,2133.19 932.718,2145.86 927.288,2163.05C921.857,2180.25 920.047,2203.78 934.528,2304.69C949.008,2405.6 955.796,2412.39 958.963,2414.65C962.131,2416.91 976.611,2422.67 976.611,2422.67L1039.06,2482.98L1121.87,2485.71L1169.83,2496.1L1185.02,2495.15L1185.67,2482.53L1207.39,2455.83L1193.14,2425.96Z" style="fill:rgb(162,223,242);fill-rule:nonzero;"/>
        </g>
        <g transform="matrix(0.0558786,0,0,0.0558786,-129.158,-177.433)">
            <path d="M1053.09,2077.83C1053.09,2077.83 1077.67,2115.84 1110.55,2138.77C1143.44,2161.7 1148.57,2175.73 1155.81,2187.72C1163.05,2199.71 1167.57,2224.14 1167.57,2224.14C1167.57,2224.14 1173.3,2201.22 1169.68,2176.18C1166.06,2151.14 1161.24,2108.9 1161.24,2108.9L1157.62,2106.94C1157.62,2106.94 1148.05,2102.14 1144.87,2099.35C1141.69,2096.55 1053.09,2077.83 1053.09,2077.83Z" style="fill:rgb(251,110,90);fill-rule:nonzero;"/>
        </g>
        <g transform="matrix(0.0558786,0,0,0.0558786,-129.158,-177.433)">
            <path d="M1152.19,2119.84L1053.09,2077.83L1053.09,2022.55C1053.09,2022.55 1039.96,2014.18 1034.83,2008.45C1029.71,2002.71 1023.97,1988.84 1023.97,1984.92C1023.97,1980.99 1036.64,1956.86 1036.64,1956.86L1077.97,1877.52L1154.3,1892.3L1166.06,1911.91L1169.08,1929.71L1168.93,1947.43C1168.93,1947.43 1172.1,1974.06 1172.4,1987.63C1172.7,2001.21 1169.68,2052.19 1169.68,2057.92C1169.68,2063.65 1156.48,2077.08 1156.48,2077.08L1153.09,2095.18L1154.45,2110.56L1152.19,2119.84Z" style="fill:rgb(255,201,164);fill-rule:nonzero;"/>
        </g>
        <g transform="matrix(0.0558786,0,0,0.0558786,-129.158,-177.433)">
            <path d="M1055.57,1998.79C1055.57,1998.79 1060.78,1965.53 1061.91,1949.92C1063.04,1934.31 1057.84,1912.82 1076.16,1904.67C1094.49,1896.53 1109.2,1910.1 1128.88,1908.97C1148.57,1907.84 1156.26,1900.15 1165.54,1924.58L1168.93,1947.43C1168.93,1947.43 1174.59,1934.54 1172.78,1925.49C1170.97,1916.44 1167.57,1911.88 1170.06,1902.05C1172.55,1892.23 1184.09,1870.73 1167.57,1859.65C1151.05,1848.56 1121.64,1860.78 1103.09,1866.89C1084.54,1872.99 1030.46,1836.57 1022.32,1881.82C1014.17,1927.07 1021.64,1960.56 1026.84,1967.12C1032.04,1973.68 1043.58,1971.87 1047.88,1978.66C1052.18,1985.44 1055.57,1998.79 1055.57,1998.79Z" style="fill:rgb(48,60,102);fill-rule:nonzero;"/>
        </g>
        <g transform="matrix(0.0558786,0,0,0.0558786,-129.158,-177.433)">
            <path d="M1053.09,2022.55C1053.09,2022.55 1080.38,2072.1 1097.5,2078.21C1114.63,2084.32 1148.79,2083.41 1152.41,2081.6C1156.03,2079.79 1156.48,2077.08 1156.48,2077.08L1157.62,2106.94L1152.19,2119.84C1152.19,2119.84 1154.45,2099.48 1132.95,2092.01C1111.46,2084.54 1108.07,2089.52 1093.81,2081.38C1079.56,2073.23 1062.81,2056.94 1059.19,2047.66C1055.57,2038.39 1053.09,2042.46 1053.09,2042.46L1053.09,2022.55Z" style="fill:rgb(239,179,139);fill-rule:nonzero;"/>
        </g>
        <g transform="matrix(0.0558786,0,0,0.0558786,-129.158,-177.433)">
            <path d="M1343.15,2161.7C1343.15,2161.7 1351.97,2146.09 1351.97,2135.23C1351.97,2124.36 1341.11,2106.49 1337.72,2094.27C1334.32,2082.06 1334.55,2073.68 1339.98,2074.82C1345.41,2075.95 1362.15,2111.24 1366.68,2113.28C1371.2,2115.32 1387.04,2092.24 1397.45,2092.24C1407.85,2092.24 1439.76,2126.18 1435.23,2141.79C1430.71,2157.4 1411.48,2164.19 1404.01,2167.58C1396.54,2170.97 1390.21,2187.72 1390.21,2187.72L1343.15,2161.7Z" style="fill:rgb(255,201,164);fill-rule:nonzero;"/>
        </g>
        <g transform="matrix(0.0558786,0,0,0.0558786,-129.158,-177.433)">
            <path d="M1193.14,2425.96C1193.14,2425.96 1200.38,2414.43 1208.75,2411.71C1217.12,2408.99 1241.56,2408.09 1251.96,2401.98C1262.37,2395.87 1267.12,2392.48 1267.12,2392.48C1267.12,2392.48 1270.52,2396.55 1268.03,2404.47C1265.54,2412.39 1247.44,2423.93 1247.44,2423.93C1247.44,2423.93 1277.76,2422.8 1288.84,2418.04C1299.93,2413.29 1298.8,2415.33 1301.74,2420.31C1304.68,2425.28 1303.32,2438.41 1301.74,2448.82C1300.16,2459.22 1294.95,2465.78 1288.39,2470.76C1281.83,2475.74 1234.54,2487.51 1222.55,2487.73C1210.56,2487.96 1185.67,2482.53 1185.67,2482.53L1193.14,2425.96Z" style="fill:rgb(255,201,164);fill-rule:nonzero;"/>
        </g>
        <g transform="matrix(0.0558786,0,0,0.0558786,-129.158,-177.433)">
            <path d="M999.689,2204.23C999.689,2204.23 1025.93,2329.58 1017.79,2338.63C1009.64,2347.68 983.399,2347.23 976.611,2364.42C976.611,2364.42 992.902,2349.49 1011,2355.82C1011,2355.82 990.187,2365.78 987.472,2381.17C987.472,2381.17 1011.91,2358.99 1030.01,2363.07C1048.11,2367.14 1120.06,2395.19 1142.68,2399.27C1142.68,2399.27 1074.35,2364.87 1053.09,2343.15C1031.82,2321.43 999.689,2204.23 999.689,2204.23Z" style="fill:rgb(137,204,219);fill-rule:nonzero;"/>
        </g>
        <g transform="matrix(0.0558786,0,0,0.0558786,-129.158,-177.433)">
            <path d="M1017.79,2338.63C1017.79,2338.63 972.991,2334.1 964.393,2349.04C964.393,2349.04 989.734,2338.63 1020.05,2349.04L1022.32,2343.51L1017.79,2338.63Z" style="fill:rgb(137,204,219);fill-rule:nonzero;"/>
        </g>
        <g transform="matrix(0.0558786,0,0,0.0558786,-129.158,-177.433)">
            <path d="M976.611,2422.67C976.611,2422.67 1159.39,2488.64 1172.42,2490.67C1185.45,2492.71 1185.67,2482.53 1185.67,2482.53C1185.67,2482.53 1191.55,2489.99 1182.73,2497.46C1173.91,2504.93 1047.88,2485.92 1022.32,2502.89C996.748,2519.86 976.611,2583.66 976.611,2583.66L976.611,2422.67Z" style="fill:rgb(137,204,219);fill-rule:nonzero;"/>
        </g>
        <g transform="matrix(0.0558786,0,0,0.0558786,-129.158,-177.433)">
            <path d="M1202.56,2485.71C1202.56,2485.71 1220.74,2686.16 1215.31,2734.35L1279.79,2734.35C1279.79,2734.35 1257.54,2702.45 1244.57,2667.15C1231.6,2631.86 1225.49,2496.78 1225.49,2496.78L1202.56,2485.71Z" style="fill:rgb(137,204,219);fill-rule:nonzero;"/>
        </g>
        <g transform="matrix(0.0558786,0,0,0.0558786,-129.158,-177.433)">
            <path d="M1225.49,2496.78L1229.57,2492.38L1217.67,2487.74L1203.29,2486.06" style="fill:rgb(137,204,219);fill-rule:nonzero;"/>
        </g>
        <g transform="matrix(0.0558786,0,0,0.0558786,-129.158,-177.433)">
            <path d="M1099.24,3244.11L1020.05,3244.11L1020.05,3305.42C1020.05,3310.54 1024.21,3314.7 1029.33,3314.7L1169.16,3314.7C1174.28,3314.7 1178.43,3310.54 1178.43,3305.42L1178.43,3296.51C1178.43,3292.09 1175.31,3288.28 1170.97,3287.41L1127.64,3278.75C1111.13,3275.44 1099.24,3260.94 1099.24,3244.11Z" style="fill:rgb(251,110,90);fill-rule:nonzero;"/>
        </g>
        <g transform="matrix(0.0558786,0,0,0.0558786,-129.158,-177.433)">
            <path d="M2313.08,3229.99L2093.93,3229.99L2111.16,2907.46L2215.35,2536.7L2343.41,2572.88L2313.08,3229.99Z" style="fill:rgb(45,104,173);fill-rule:nonzero;"/>
        </g>
        <g transform="matrix(0.0558786,0,0,0.0558786,-129.158,-177.433)">
            <path d="M2273.11,2623.53L2313.08,3229.99L2592.88,3229.99L2572.21,2962.6L2530.34,2604.24C2530.34,2604.24 2489.51,2575.98 2481.24,2572.88C2472.97,2569.78 2273.11,2623.53 2273.11,2623.53Z" style="fill:rgb(64,116,192);fill-rule:nonzero;"/>
        </g>
        <g transform="matrix(0.0558786,0,0,0.0558786,-129.158,-177.433)">
            <path d="M2183.52,2614.8C2183.52,2614.8 2264.84,2638.69 2350.3,2629.73C2435.75,2620.78 2452.29,2598.72 2452.29,2598.72L2486.75,2081.86L2428.52,1968.49L2329.28,1933L2226.71,1927.49L2157.34,1985.37L2150.44,2321.02L2183.52,2614.8Z" style="fill:rgb(230,242,254);fill-rule:nonzero;"/>
        </g>
        <g transform="matrix(0.0558786,0,0,0.0558786,-129.158,-177.433)">
            <path d="M2175.25,1989.85L2247.27,1945.75L2316.3,1955.05L2421.28,2002.26L2428.52,1930.93L2390.27,1852.14L2300.68,1841.11L2226.71,1865.92L2175.25,1915.43L2175.25,1989.85Z" style="fill:rgb(230,242,254);fill-rule:nonzero;"/>
        </g>
        <g transform="matrix(0.0558786,0,0,0.0558786,-129.158,-177.433)">
            <path d="M2285.52,1909.57C2285.52,1909.57 2307.11,1942.65 2312.63,1946.32C2318.14,1950 2316.3,1955.05 2316.3,1955.05L2295.63,1978.02C2295.63,1978.02 2321.01,2471.57 2329.28,2509.82L2285.52,2546L2250.72,2503.62C2250.72,2503.62 2224.87,2253.11 2261.05,1968.49L2247.27,1945.75L2271.74,1905.09L2285.52,1909.57Z" style="fill:rgb(251,110,90);fill-rule:nonzero;"/>
        </g>
        <g transform="matrix(0.0558786,0,0,0.0558786,-129.158,-177.433)">
            <path d="M1713.86,1932.31C1713.86,1932.31 1707.66,1899.23 1701.46,1887.52C1695.26,1875.8 1688.37,1868.91 1688.37,1857.54C1688.37,1846.17 1685.61,1807.57 1683.2,1803.09C1680.79,1798.61 1667.69,1806.88 1667.69,1818.94C1667.69,1831 1667.69,1852.37 1659.42,1852.02C1651.15,1851.68 1619.11,1801.37 1612.21,1797.92C1605.32,1794.48 1589.13,1796.2 1577.07,1803.44C1565.01,1810.67 1563.28,1847.56 1565.01,1864.26C1566.73,1880.97 1618.42,1939.55 1627.03,1948.16C1635.65,1956.78 1669.76,1968.49 1669.76,1968.49L1713.86,1932.31Z" style="fill:rgb(255,201,164);fill-rule:nonzero;"/>
        </g>
        <g transform="matrix(0.0558786,0,0,0.0558786,-129.158,-177.433)">
            <path d="M2390.27,1852.14C2390.27,1852.14 2415.08,2036.37 2397.51,2160.42C2379.93,2284.47 2420.25,2526.36 2415.08,2646.27C2409.91,2766.19 2401.53,2998.78 2415.54,3030.82C2429.55,3062.87 2626.99,3001.88 2665.24,2953.29C2703.49,2904.71 2708.41,2887.55 2690.05,2823.04C2671.69,2758.53 2640.43,2688.79 2640.43,2688.79L2647.67,2629.73L2608.39,2440.56L2592.88,2287.57C2592.88,2287.57 2639.4,2323.75 2645.6,2340.29C2651.8,2356.83 2582.54,2482.94 2582.54,2482.94C2582.54,2482.94 2624.35,2703.13 2620.5,2695.89C2616.66,2688.66 2799.63,2381.64 2786.19,2306.18C2772.75,2230.71 2517.42,1890.62 2492.61,1873.04C2467.8,1855.47 2390.27,1852.14 2390.27,1852.14Z" style="fill:rgb(167,205,254);fill-rule:nonzero;"/>
        </g>
        <g transform="matrix(0.0558786,0,0,0.0558786,-129.158,-177.433)">
            <path d="M1777.61,2114.94L1657.7,1975.04C1657.7,1975.04 1672.17,1924.73 1723.17,1930.24L1972.64,2174.2C1972.64,2174.2 2165.83,1863.62 2226.71,1865.92C2226.71,1865.92 2164.92,1966.08 2183.52,2068.42C2202.13,2170.76 2204.2,2233.82 2210.4,2281.37C2216.6,2328.92 2222.12,2935.03 2193.17,2997.05C2193.17,2997.05 2087.04,3001.19 2047.07,2963.97C2047.07,2963.97 2084.29,2810.98 2076.02,2670.39C2067.75,2529.81 2082.22,2268.62 2082.22,2268.62L2026.4,2301.01L1953.35,2286.54L1872.03,2219.69L1816.7,2164.71L1777.61,2114.94Z" style="fill:rgb(167,205,254);fill-rule:nonzero;"/>
        </g>
        <g transform="matrix(0.0558786,0,0,0.0558786,-129.158,-177.433)">
            <path d="M2226.71,1865.92C2226.71,1865.92 2247.38,1909.57 2285.52,1909.57C2323.65,1909.57 2374.19,1870.52 2390.27,1852.14C2390.27,1852.14 2375.11,1813.55 2375.11,1793.1C2375.11,1772.66 2396.7,1705.58 2396.7,1705.58C2396.7,1705.58 2414.62,1640.34 2414.62,1634.83C2414.62,1629.31 2359.49,1542.48 2359.49,1542.48C2359.49,1542.48 2294.25,1530.99 2289.65,1530.99C2285.06,1530.99 2182.6,1538.8 2181.23,1540.18C2179.85,1541.56 2143.55,1578.77 2143.55,1578.77L2164.69,1679.39C2164.69,1679.39 2168.36,1728.09 2185.36,1773.57C2202.36,1819.06 2210.17,1838.81 2226.71,1844.33C2243.25,1849.84 2241.87,1856.27 2241.87,1856.27L2226.71,1865.92Z" style="fill:rgb(255,201,164);fill-rule:nonzero;"/>
        </g>
        <g transform="matrix(0.0558786,0,0,0.0558786,-129.158,-177.433)">
            <path d="M2164.69,1679.39C2164.69,1679.39 2160.55,1586.58 2166.98,1574.18C2173.42,1561.77 2247.39,1559.02 2282.76,1560.4C2318.14,1561.77 2331,1559.02 2339.27,1572.8C2347.54,1586.58 2348.46,1715.23 2348.46,1715.23C2348.46,1715.23 2356.73,1648.61 2375.57,1645.39C2394.41,1642.18 2403.13,1677.55 2398.08,1689.04C2393.03,1700.52 2376.03,1704.66 2376.03,1718.9C2376.03,1733.14 2361.33,1766.91 2375.11,1793.1C2375.11,1793.1 2407.5,1791.03 2410.94,1761.4C2412.36,1749.21 2413.2,1742.38 2415.13,1735.69C2420.94,1715.56 2428.56,1704 2435.06,1692.48C2453.51,1659.82 2449.85,1622.8 2449,1615.64C2443.3,1567.41 2407.38,1537.54 2399.98,1531.38C2391.01,1523.92 2384.62,1520.52 2331.04,1499.21C2242.58,1464.04 2227.59,1460.43 2206.96,1462.45C2195.19,1463.6 2165.31,1466.51 2145.68,1485.43C2110.09,1519.73 2115.41,1599.72 2164.69,1679.39Z" style="fill:rgb(48,60,102);fill-rule:nonzero;"/>
        </g>
        <g transform="matrix(0.0558786,0,0,0.0558786,-129.158,-177.433)">
            <path d="M2370.97,1661.01C2370.97,1661.01 2377.18,1662.62 2381.54,1676.63C2385.91,1690.65 2369.37,1705.58 2369.37,1705.58C2369.37,1705.58 2375.57,1698.92 2373.5,1686.74C2371.43,1674.57 2362.47,1672.27 2370.97,1661.01Z" style="fill:rgb(239,179,139);fill-rule:nonzero;"/>
        </g>
        <g transform="matrix(0.0558786,0,0,0.0558786,-129.158,-177.433)">
            <path d="M2226.71,1844.33C2226.71,1844.33 2277.71,1852.6 2300.68,1841.11C2323.65,1829.63 2352.6,1783.68 2359.49,1769.44C2366.38,1755.2 2369.59,1717.52 2369.59,1717.52C2369.59,1717.52 2372.35,1738.2 2360.87,1785.06C2349.38,1831.92 2307.57,1855.81 2291.95,1862.71C2276.33,1869.6 2226.71,1865.92 2226.71,1865.92L2226.71,1844.33Z" style="fill:rgb(239,179,139);fill-rule:nonzero;"/>
        </g>
        <g transform="matrix(0.0558786,0,0,0.0558786,-129.158,-177.433)">
            <path d="M2111.16,2019.83C2111.16,2019.83 2093.93,2074.28 2087.73,2137.68C2081.53,2201.08 2082.22,2268.62 2082.22,2268.62C2082.22,2268.62 2045.69,2322.37 2005.03,2320.99C1964.37,2319.61 1864.44,2232.09 1777.61,2114.94C1777.61,2114.94 1916.82,2258.97 1971.26,2279.64C2025.71,2300.32 2063.61,2244.5 2063.61,2206.59C2063.61,2168.69 2097.38,2057.05 2111.16,2019.83Z" style="fill:rgb(146,190,239);fill-rule:nonzero;"/>
        </g>
        <g transform="matrix(0.0558786,0,0,0.0558786,-129.158,-177.433)">
            <path d="M2452.29,2060.15C2452.29,2060.15 2555.67,2251.39 2592.88,2287.57L2608.39,2440.56L2549.46,2572.88C2549.46,2572.88 2586.68,2487.08 2579.44,2406.45C2572.21,2325.82 2452.29,2060.15 2452.29,2060.15Z" style="fill:rgb(146,190,239);fill-rule:nonzero;"/>
        </g>
        <g transform="matrix(0.0558786,0,0,0.0558786,-129.158,-177.433)">
            <path d="M2647.67,2629.73C2647.67,2629.73 2648.7,2695.89 2665.24,2740.34C2681.78,2784.79 2690.05,2823.04 2690.05,2823.04C2690.05,2823.04 2651.8,2773.42 2632.16,2746.55C2612.52,2719.67 2617.69,2690.72 2647.67,2629.73Z" style="fill:rgb(146,190,239);fill-rule:nonzero;"/>
        </g>
        <g transform="matrix(0.0558786,0,0,0.0558786,-129.158,-177.433)">
            <path d="M2592.88,2662.58C2592.88,2662.58 2574.96,2696.58 2574.96,2700.72C2574.96,2704.85 2577.26,2712.66 2580.02,2730.58C2582.77,2748.5 2568.53,2763.66 2547.86,2762.74C2527.18,2761.82 2512.48,2736.55 2506.51,2729.66C2500.53,2722.77 2495.48,2702.56 2495.48,2693.83C2495.48,2685.1 2544.18,2614.8 2544.18,2614.8L2592.88,2662.58Z" style="fill:rgb(255,201,164);fill-rule:nonzero;"/>
        </g>
    </g>
</svg>
