<svg width="22" height="22" viewBox="0 0 22 22" fill="none" xmlns="http://www.w3.org/2000/svg">
<path d="M7.99172 14.5762C6.53745 13.1388 5.11716 11.749 3.71305 10.3436C1.57053 8.19898 1.30157 5.03029 3.04915 2.68891C4.77875 0.371712 7.86247 -0.286797 10.5114 1.05882C10.7612 1.18562 11.1875 1.19019 11.4348 1.0629C14.1503 -0.335001 17.2765 0.348509 19.0084 2.75591C20.7163 5.12964 20.3897 8.27202 18.2002 10.3944C16.7151 11.8342 15.2147 13.2582 13.7209 14.689C11.7892 16.5393 9.95646 16.516 7.99172 14.5762ZM16.5447 3.47912C14.9601 2.33073 13.3969 2.36407 11.9237 3.57814C11.2026 4.17227 10.7769 4.17505 10.0573 3.59023C8.46591 2.29675 6.45019 2.38106 5.14216 3.79579C3.84867 5.19451 3.9289 7.27445 5.35572 8.70553C6.85297 10.2074 8.36558 11.694 9.8795 13.1791C10.6359 13.9213 11.1545 13.9303 11.9114 13.2107C13.4681 11.7307 15.0214 10.2472 16.5628 8.75161C18.1646 7.19749 18.1836 5.2017 16.5447 3.47912Z" fill="#2E90FA"/>
<path d="M8.72546 20.8833C6.97199 19.1653 5.24958 17.4991 3.56278 15.7976C2.18204 14.4048 1.71765 12.6953 1.98547 10.7722C2.01161 10.5848 2.06406 10.3987 2.12615 10.2196C2.15867 10.1258 2.23841 10.0483 2.38139 9.84064C3.04071 10.7246 4.09629 11.1199 4.31606 12.3549C4.43633 13.0302 4.85055 13.7397 5.32899 14.2489C6.80108 15.8154 8.36369 17.2971 9.89966 18.8031C10.6348 19.5238 11.1721 19.521 11.9374 18.7936C13.4966 17.3117 15.0774 15.8501 16.5812 14.3134C17.0542 13.8299 17.5514 13.1577 17.6139 12.5297C17.7348 11.3117 18.7023 10.8207 19.3533 10.0768C19.7113 9.66759 19.8775 10.1478 19.9464 10.4735C20.352 12.3892 19.9613 14.153 18.6142 15.5548C16.8611 17.379 15.0094 19.1125 13.1419 20.8214C11.9275 21.9327 10.2794 21.9136 8.72546 20.8833Z" fill="#2E90FA"/>
<path d="M7.01051 6.02407C8.27524 5.88812 9.39127 6.1293 10.4751 6.65333C10.7508 6.7865 11.2042 6.7883 11.4769 6.65202C13.1031 5.84008 14.7384 5.73746 16.4484 6.35692C17.0939 6.59074 17.1408 6.91559 16.8429 7.45955C16.3545 8.35107 16.0094 8.52591 14.9943 8.34176C13.8564 8.13538 12.8449 8.39764 11.957 9.15615C11.1782 9.82152 10.8083 9.82332 10.0395 9.17968C9.01953 8.32574 7.88781 8.12623 6.60282 8.44306C6.32112 8.51251 5.84954 8.34666 5.65721 8.12361C5.33776 7.75302 5.15933 7.25448 4.96586 6.79124C4.94625 6.74434 5.2144 6.51836 5.37812 6.46509C5.89186 6.2976 6.41965 6.17276 7.01051 6.02407Z" fill="#2E90FA"/>
</svg>
