<svg width="144" height="25" viewBox="0 0 144 25" fill="none" xmlns="http://www.w3.org/2000/svg">
<path d="M9.99172 16.5762C8.53745 15.1388 7.11716 13.749 5.71305 12.3436C3.57053 10.199 3.30157 7.03029 5.04915 4.68891C6.77875 2.37171 9.86247 1.7132 12.5114 3.05882C12.7612 3.18562 13.1875 3.19019 13.4348 3.0629C16.1503 1.665 19.2765 2.34851 21.0084 4.75591C22.7163 7.12964 22.3897 10.272 20.2002 12.3944C18.7151 13.8342 17.2147 15.2582 15.7209 16.689C13.7892 18.5393 11.9565 18.516 9.99172 16.5762ZM18.5447 5.47912C16.9601 4.33073 15.3969 4.36407 13.9237 5.57814C13.2026 6.17227 12.7769 6.17505 12.0573 5.59023C10.4659 4.29675 8.45019 4.38106 7.14216 5.79579C5.84867 7.19451 5.9289 9.27445 7.35572 10.7055C8.85297 12.2074 10.3656 13.694 11.8795 15.1791C12.6359 15.9213 13.1545 15.9303 13.9114 15.2107C15.4681 13.7307 17.0214 12.2472 18.5628 10.7516C20.1646 9.19749 20.1836 7.2017 18.5447 5.47912Z" fill="#2E90FA"/>
<path d="M10.7255 22.8833C8.97199 21.1653 7.24958 19.4991 5.56278 17.7976C4.18204 16.4048 3.71765 14.6953 3.98547 12.7722C4.01161 12.5848 4.06406 12.3987 4.12615 12.2196C4.15867 12.1258 4.23841 12.0483 4.38139 11.8406C5.04071 12.7246 6.09629 13.1199 6.31606 14.3549C6.43633 15.0302 6.85055 15.7397 7.32899 16.2489C8.80108 17.8154 10.3637 19.2971 11.8997 20.8031C12.6348 21.5238 13.1721 21.521 13.9374 20.7936C15.4966 19.3117 17.0774 17.8501 18.5812 16.3134C19.0542 15.8299 19.5514 15.1577 19.6139 14.5297C19.7348 13.3117 20.7023 12.8207 21.3533 12.0768C21.7113 11.6676 21.8775 12.1478 21.9464 12.4735C22.352 14.3892 21.9613 16.153 20.6142 17.5548C18.8611 19.379 17.0094 21.1125 15.1419 22.8214C13.9275 23.9327 12.2794 23.9136 10.7255 22.8833Z" fill="#2E90FA"/>
<path d="M9.01051 8.02407C10.2752 7.88812 11.3913 8.1293 12.4751 8.65333C12.7508 8.7865 13.2042 8.7883 13.4769 8.65202C15.1031 7.84008 16.7384 7.73746 18.4484 8.35692C19.0939 8.59074 19.1408 8.91559 18.8429 9.45955C18.3545 10.3511 18.0094 10.5259 16.9943 10.3418C15.8564 10.1354 14.8449 10.3976 13.957 11.1561C13.1782 11.8215 12.8083 11.8233 12.0395 11.1797C11.0195 10.3257 9.88781 10.1262 8.60282 10.4431C8.32112 10.5125 7.84954 10.3467 7.65721 10.1236C7.33776 9.75302 7.15933 9.25448 6.96586 8.79124C6.94625 8.74434 7.2144 8.51836 7.37812 8.46509C7.89186 8.2976 8.41965 8.17276 9.01051 8.02407Z" fill="#2E90FA"/>
<path d="M26.88 20V6H29.34L34.44 14.3L33 14.28L38.16 6H40.5V20H37.92V14.74C37.92 13.54 37.9467 12.46 38 11.5C38.0667 10.54 38.1733 9.58667 38.32 8.64L38.64 9.5L34.3 16.2H32.98L28.78 9.56L29.06 8.64C29.2067 9.53333 29.3067 10.4533 29.36 11.4C29.4267 12.3333 29.46 13.4467 29.46 14.74V20H26.88ZM48.7628 20.2C47.6561 20.2 46.6761 19.9667 45.8228 19.5C44.9828 19.0333 44.3228 18.4 43.8428 17.6C43.3761 16.7867 43.1428 15.86 43.1428 14.82C43.1428 13.9933 43.2761 13.24 43.5428 12.56C43.8095 11.88 44.1761 11.2933 44.6428 10.8C45.1228 10.2933 45.6895 9.90667 46.3428 9.64C47.0095 9.36 47.7361 9.22 48.5228 9.22C49.2161 9.22 49.8628 9.35333 50.4628 9.62C51.0628 9.88667 51.5828 10.2533 52.0228 10.72C52.4628 11.1733 52.7961 11.72 53.0228 12.36C53.2628 12.9867 53.3761 13.6733 53.3628 14.42L53.3428 15.28H44.8028L44.3428 13.6H51.2828L50.9628 13.94V13.5C50.9228 13.0867 50.7895 12.7267 50.5628 12.42C50.3361 12.1 50.0428 11.8533 49.6828 11.68C49.3361 11.4933 48.9495 11.4 48.5228 11.4C47.8695 11.4 47.3161 11.5267 46.8628 11.78C46.4228 12.0333 46.0895 12.4 45.8628 12.88C45.6361 13.3467 45.5228 13.9333 45.5228 14.64C45.5228 15.32 45.6628 15.9133 45.9428 16.42C46.2361 16.9267 46.6428 17.32 47.1628 17.6C47.6961 17.8667 48.3161 18 49.0228 18C49.5161 18 49.9695 17.92 50.3828 17.76C50.7961 17.6 51.2428 17.3133 51.7228 16.9L52.9428 18.6C52.5828 18.9333 52.1695 19.22 51.7028 19.46C51.2495 19.6867 50.7695 19.8667 50.2628 20C49.7561 20.1333 49.2561 20.2 48.7628 20.2ZM59.7816 20.2C58.8482 20.2 58.0082 19.9667 57.2616 19.5C56.5282 19.02 55.9416 18.3733 55.5016 17.56C55.0749 16.7333 54.8616 15.7867 54.8616 14.72C54.8616 13.6667 55.0749 12.7267 55.5016 11.9C55.9282 11.0733 56.5082 10.4267 57.2416 9.96C57.9882 9.48 58.8282 9.24 59.7616 9.24C60.2682 9.24 60.7549 9.32 61.2216 9.48C61.7016 9.64 62.1282 9.86 62.5016 10.14C62.8749 10.4067 63.1682 10.7067 63.3816 11.04C63.6082 11.3733 63.7349 11.72 63.7616 12.08L63.1016 12.16V5.2H65.5616V20H63.1816L63.1216 17.52L63.6016 17.56C63.5882 17.8933 63.4682 18.2133 63.2416 18.52C63.0282 18.8267 62.7482 19.1067 62.4016 19.36C62.0549 19.6133 61.6482 19.82 61.1816 19.98C60.7282 20.1267 60.2616 20.2 59.7816 20.2ZM60.2616 18.12C60.8349 18.12 61.3416 17.9733 61.7816 17.68C62.2216 17.3867 62.5616 16.9867 62.8016 16.48C63.0549 15.9733 63.1816 15.3867 63.1816 14.72C63.1816 14.0667 63.0549 13.4867 62.8016 12.98C62.5616 12.46 62.2216 12.06 61.7816 11.78C61.3416 11.4867 60.8349 11.34 60.2616 11.34C59.6882 11.34 59.1816 11.4867 58.7416 11.78C58.3016 12.06 57.9549 12.46 57.7016 12.98C57.4616 13.4867 57.3416 14.0667 57.3416 14.72C57.3416 15.3867 57.4616 15.9733 57.7016 16.48C57.9549 16.9867 58.3016 17.3867 58.7416 17.68C59.1816 17.9733 59.6882 18.12 60.2616 18.12ZM73.2341 20.2C72.4207 20.2 71.6741 20.1 70.9941 19.9C70.3141 19.6867 69.7007 19.3733 69.1541 18.96C68.6074 18.5467 68.1207 18.0467 67.6941 17.46L69.3941 15.54C70.0474 16.4467 70.6874 17.0733 71.3141 17.42C71.9407 17.7667 72.6474 17.94 73.4341 17.94C73.8874 17.94 74.3007 17.8733 74.6741 17.74C75.0474 17.5933 75.3407 17.4 75.5541 17.16C75.7674 16.9067 75.8741 16.62 75.8741 16.3C75.8741 16.0733 75.8274 15.8667 75.7341 15.68C75.6541 15.48 75.5274 15.3067 75.3541 15.16C75.1807 15 74.9674 14.8533 74.7141 14.72C74.4607 14.5867 74.1741 14.4733 73.8541 14.38C73.5341 14.2867 73.1807 14.2 72.7941 14.12C72.0607 13.9733 71.4207 13.78 70.8741 13.54C70.3274 13.2867 69.8674 12.98 69.4941 12.62C69.1207 12.2467 68.8474 11.8333 68.6741 11.38C68.5007 10.9133 68.4141 10.3867 68.4141 9.8C68.4141 9.21333 68.5407 8.67333 68.7941 8.18C69.0607 7.68667 69.4207 7.26 69.8741 6.9C70.3274 6.54 70.8541 6.26 71.4541 6.06C72.0541 5.86 72.7007 5.76 73.3941 5.76C74.1807 5.76 74.8807 5.85333 75.4941 6.04C76.1207 6.22667 76.6674 6.50667 77.1341 6.88C77.6141 7.24 78.0074 7.68 78.3141 8.2L76.5941 9.9C76.3274 9.48667 76.0274 9.14667 75.6941 8.88C75.3607 8.6 75.0007 8.39333 74.6141 8.26C74.2274 8.11333 73.8207 8.04 73.3941 8.04C72.9141 8.04 72.4941 8.10667 72.1341 8.24C71.7874 8.37333 71.5141 8.56667 71.3141 8.82C71.1141 9.06 71.0141 9.35333 71.0141 9.7C71.0141 9.96667 71.0741 10.2067 71.1941 10.42C71.3141 10.62 71.4807 10.8 71.6941 10.96C71.9207 11.12 72.2074 11.26 72.5541 11.38C72.9007 11.5 73.2941 11.6067 73.7341 11.7C74.4674 11.8467 75.1274 12.0467 75.7141 12.3C76.3007 12.54 76.8007 12.8333 77.2141 13.18C77.6274 13.5133 77.9407 13.9 78.1541 14.34C78.3674 14.7667 78.4741 15.2467 78.4741 15.78C78.4741 16.7 78.2541 17.4933 77.8141 18.16C77.3874 18.8133 76.7807 19.32 75.9941 19.68C75.2074 20.0267 74.2874 20.2 73.2341 20.2ZM80.8931 24.4V9.46H83.3131L83.3531 11.86L82.9331 11.68C83.0131 11.2667 83.2398 10.88 83.6131 10.52C83.9865 10.1467 84.4398 9.84667 84.9731 9.62C85.5198 9.39333 86.0865 9.28 86.6731 9.28C87.6065 9.28 88.4331 9.51333 89.1531 9.98C89.8865 10.4467 90.4598 11.0867 90.8731 11.9C91.2998 12.7133 91.5131 13.6533 91.5131 14.72C91.5131 15.7733 91.2998 16.7133 90.8731 17.54C90.4598 18.3533 89.8865 19 89.1531 19.48C88.4331 19.9467 87.6198 20.18 86.7131 20.18C86.0998 20.18 85.5065 20.06 84.9331 19.82C84.3731 19.58 83.8931 19.2667 83.4931 18.88C83.1065 18.4933 82.8665 18.0867 82.7731 17.66L83.3731 17.38V24.4H80.8931ZM86.2131 18C86.7731 18 87.2731 17.86 87.7131 17.58C88.1531 17.3 88.4931 16.9133 88.7331 16.42C88.9865 15.9267 89.1131 15.36 89.1131 14.72C89.1131 14.08 88.9931 13.52 88.7531 13.04C88.5131 12.5467 88.1731 12.16 87.7331 11.88C87.2931 11.6 86.7865 11.46 86.2131 11.46C85.6265 11.46 85.1131 11.6 84.6731 11.88C84.2465 12.1467 83.9065 12.5267 83.6531 13.02C83.3998 13.5133 83.2731 14.08 83.2731 14.72C83.2731 15.36 83.3998 15.9267 83.6531 16.42C83.9065 16.9133 84.2465 17.3 84.6731 17.58C85.1131 17.86 85.6265 18 86.2131 18ZM97.6856 20.2C96.819 20.2 96.0323 19.96 95.3256 19.48C94.619 19 94.0523 18.3467 93.6256 17.52C93.199 16.6933 92.9856 15.7533 92.9856 14.7C92.9856 13.6467 93.199 12.7067 93.6256 11.88C94.0523 11.0533 94.6323 10.4067 95.3656 9.94C96.099 9.47333 96.9256 9.24 97.8456 9.24C98.379 9.24 98.8656 9.32 99.3056 9.48C99.7456 9.62667 100.132 9.84 100.466 10.12C100.799 10.4 101.072 10.72 101.286 11.08C101.512 11.44 101.666 11.8267 101.746 12.24L101.206 12.1V9.46H103.686V20H101.186V17.48L101.766 17.38C101.672 17.74 101.499 18.0933 101.246 18.44C101.006 18.7733 100.699 19.0733 100.326 19.34C99.9656 19.5933 99.559 19.8 99.1056 19.96C98.6656 20.12 98.1923 20.2 97.6856 20.2ZM98.3656 18.02C98.939 18.02 99.4456 17.88 99.8856 17.6C100.326 17.32 100.666 16.9333 100.906 16.44C101.159 15.9333 101.286 15.3533 101.286 14.7C101.286 14.06 101.159 13.4933 100.906 13C100.666 12.5067 100.326 12.12 99.8856 11.84C99.4456 11.56 98.939 11.42 98.3656 11.42C97.7923 11.42 97.2856 11.56 96.8456 11.84C96.419 12.12 96.0856 12.5067 95.8456 13C95.6056 13.4933 95.4856 14.06 95.4856 14.7C95.4856 15.3533 95.6056 15.9333 95.8456 16.44C96.0856 16.9333 96.419 17.32 96.8456 17.6C97.2856 17.88 97.7923 18.02 98.3656 18.02ZM111.058 20.2C110.071 20.2 109.184 19.96 108.398 19.48C107.611 19 106.991 18.3467 106.538 17.52C106.084 16.6933 105.858 15.76 105.858 14.72C105.858 13.68 106.084 12.7467 106.538 11.92C106.991 11.0933 107.611 10.44 108.398 9.96C109.184 9.48 110.071 9.24 111.058 9.24C112.004 9.24 112.864 9.42 113.638 9.78C114.411 10.14 115.011 10.64 115.438 11.28L114.078 12.92C113.878 12.64 113.624 12.3867 113.318 12.16C113.011 11.9333 112.684 11.7533 112.338 11.62C111.991 11.4867 111.644 11.42 111.298 11.42C110.711 11.42 110.184 11.5667 109.718 11.86C109.264 12.14 108.904 12.5333 108.638 13.04C108.371 13.5333 108.238 14.0933 108.238 14.72C108.238 15.3467 108.371 15.9067 108.638 16.4C108.918 16.8933 109.291 17.2867 109.758 17.58C110.224 17.8733 110.744 18.02 111.318 18.02C111.664 18.02 111.998 17.9667 112.318 17.86C112.651 17.74 112.964 17.5733 113.258 17.36C113.551 17.1467 113.824 16.88 114.078 16.56L115.438 18.22C114.984 18.8067 114.358 19.2867 113.558 19.66C112.771 20.02 111.938 20.2 111.058 20.2ZM122.259 20.2C121.152 20.2 120.172 19.9667 119.319 19.5C118.479 19.0333 117.819 18.4 117.339 17.6C116.872 16.7867 116.639 15.86 116.639 14.82C116.639 13.9933 116.772 13.24 117.039 12.56C117.306 11.88 117.672 11.2933 118.139 10.8C118.619 10.2933 119.186 9.90667 119.839 9.64C120.506 9.36 121.232 9.22 122.019 9.22C122.712 9.22 123.359 9.35333 123.959 9.62C124.559 9.88667 125.079 10.2533 125.519 10.72C125.959 11.1733 126.292 11.72 126.519 12.36C126.759 12.9867 126.872 13.6733 126.859 14.42L126.839 15.28H118.299L117.839 13.6H124.779L124.459 13.94V13.5C124.419 13.0867 124.286 12.7267 124.059 12.42C123.832 12.1 123.539 11.8533 123.179 11.68C122.832 11.4933 122.446 11.4 122.019 11.4C121.366 11.4 120.812 11.5267 120.359 11.78C119.919 12.0333 119.586 12.4 119.359 12.88C119.132 13.3467 119.019 13.9333 119.019 14.64C119.019 15.32 119.159 15.9133 119.439 16.42C119.732 16.9267 120.139 17.32 120.659 17.6C121.192 17.8667 121.812 18 122.519 18C123.012 18 123.466 17.92 123.879 17.76C124.292 17.6 124.739 17.3133 125.219 16.9L126.439 18.6C126.079 18.9333 125.666 19.22 125.199 19.46C124.746 19.6867 124.266 19.8667 123.759 20C123.252 20.1333 122.752 20.2 122.259 20.2Z" fill="#2E90FA"/>
</svg>
